<svg xmlns="http://www.w3.org/2000/svg" xmlns:xlink="http://www.w3.org/1999/xlink" viewBox="0 0 885 857"><defs><linearGradient id="a" x1="613.2" y1="813.7" x2="613.2" y2="105.6" gradientTransform="translate(-1 -10)" gradientUnits="userSpaceOnUse"><stop offset="0" stop-color="gray" stop-opacity=".3"/><stop offset=".5" stop-color="gray" stop-opacity=".1"/><stop offset="1" stop-color="gray" stop-opacity=".1"/></linearGradient><linearGradient id="b" x1="613.8" y1="152.5" x2="613.8" y2="92.5" gradientTransform="translate(-141 20)" xlink:href="#a"/><linearGradient id="c" x1="613.8" y1="104.8" x2="613.8" y2="33.8" gradientTransform="rotate(-25 589 457)" xlink:href="#a"/><linearGradient id="d" x1="440.4" y1="329.9" x2="440.4" y2="222.9" gradientTransform="translate(-61 78)" xlink:href="#a"/><linearGradient id="e" x1="440.8" y1="541.8" x2="440.8" y2="434.9" gradientTransform="translate(27 59)" xlink:href="#a"/><linearGradient id="f" x1="440.4" y1="302" x2="440.4" y2="249.5" gradientTransform="rotate(-25 463 808)" xlink:href="#a"/><linearGradient id="g" x1="599.6" y1="607.1" x2="599.6" y2="100.8" xlink:href="#a"/></defs><path transform="rotate(-25 486 800)" fill="url(#a)" d="M356 95h513v708H356z" opacity=".5"/><path fill="#fff" d="M83 215L538 7l287 631-454 207z"/><path transform="rotate(-25 346 493)" fill="url(#b)" d="M349 112h248v60H349z"/><path d="M436 62c-17 8-25 29-17 46s29 26 47 18 25-29 16-46-28-26-46-18zm23 51a20 20 0 1110-27 20 20 0 01-10 27z" transform="translate(-157 -21)" fill="url(#c)"/><path fill="#6c63ff" d="M193 145L414 44l24 52-221 101z"/><path d="M280 43a34 34 0 1045 17 34 34 0 00-45-17zm22 49a20 20 0 1110-26 20 20 0 01-10 26z" fill="#6c63ff"/><path transform="rotate(-25 252 705)" fill="url(#d)" d="M326 301h107v107H326z"/><path transform="rotate(-25 341 898)" fill="url(#e)" d="M414 494h107v107H414z"/><path fill="#69f0ae" d="M156 309l90-41 42 90-91 41z"/><path fill="#6c63ff" d="M243 500l91-41 41 90-90 41z"/><path fill="#e0e0e0" d="M319 269l123-57 4 9-124 56zM324 282l205-94 3 9-204 93zM330 294l190-86 4 9-190 86zM406 460l123-57 4 9-123 56zM412 473l204-94 4 9-205 93zM417 485l190-86 4 9-190 86z"/><path fill="url(#f)" d="M199 337l23 8 8-45 11 3-13 56-35-16 6-6z"/><path fill="#fff" d="M202 337l20 6 7-38 10 2-11 48-31-13 5-5zM290 529l20 7 7-39 9 2-11 49-30-14 5-5z"/><path fill="#e0e0e0" d="M389 665l288-131 44 96-288 131z"/><path d="M636 610c-12-3-23-2-26 10-2 5-2 11-6 13-7 4-15-3-21-5-11-5-22-2-28 8-4 6-5 12-6 18l-2 8c-2 4-8 4-13 4h-3a25 25 0 005-17c0-9-6-19-17-18-10 1-16 10-15 20 1 8 6 14 13 18l-10 4a41 41 0 00-5 2c-9-5-21-5-30-1-4 2-1 9 3 7 7-4 14-3 21-1v1a18 18 0 00-2 2c-3 8 0 19 10 20 13 1 13-16 6-23l-1-1 9-3a37 37 0 007-4h1c9 2 25 3 29-9 3-11 3-33 19-31 7 1 13 6 19 8s12 2 17-2c4-4 5-9 6-14 1-2 1-5 3-7 4-3 10-1 14 0s7-6 3-7zm-129 85c-3 2-5 0-6-2-2-3-1-6 1-8a14 14 0 011-1c4 3 8 7 4 11zm7-54c5-4 11-3 14 2s1 14-3 19a15 15 0 01-1 2 21 21 0 01-7-4c-6-5-9-14-3-19z" fill="#6c63ff"/><path d="M853 243l-81 31c-15-1-47-5-79-20-35-17-76-17-110 1-79 2-122-8-146-18l6-13-81-32-205-91v376l72 31 38-92 84 39 17-41 55 41 4 3-5 6a27 27 0 000 37 25 25 0 0035 0l-2 3a27 27 0 000 37 25 25 0 0035 0l17-17-12 12a27 27 0 000 37 25 25 0 0036 0l16-17-6 7a19 19 0 000 26 17 17 0 0025 0l10-11c19 14 34 24 41 26 31 11 31-11 31-11 41 22 61-21 61-21 52 21 52-32 52-32 12 9 22 5 28-3 9-10 10-25 4-37l49-45 21 43 84-39 39 85 56-25V147z" transform="translate(-157 -21)" fill="url(#g)"/><path fill="#be7c5e" d="M682 418l-89 80-69-129 158-40v89z"/><path d="M257 211s28 39 197 29l99 149 67 74c10 12 11 30 0 42-6 7-15 11-27 2 0 0 0 50-50 30 0 0-19 40-59 20 0 0 0 20-30 10S266 428 266 428l-69-49z" fill="#fda57d"/><path d="M613 260s-43 0-85-19c-39-17-84-15-119 8-29 18-54 49-53 100 0 0 38 40 79-39h29s29 99 109 89 99-20 99-20z" fill="#be7c5e"/><rect x="456.8" y="463.6" width="49" height="76.9" rx="22.2" ry="22.2" transform="rotate(45 428 302)" fill="#be7c5e"/><rect x="425" y="426.2" width="49" height="76.9" rx="22.2" ry="22.2" transform="rotate(45 396 265)" fill="#be7c5e"/><rect x="498.9" y="487.3" width="49" height="83.9" rx="22.2" ry="22.2" transform="rotate(45 470 329)" fill="#be7c5e"/><rect x="540" y="526.3" width="34.2" height="56" rx="15.5" ry="15.5" transform="rotate(45 504 354)" fill="#be7c5e"/><path fill="#fff" d="M781 438l-89 40-89-218 79-29 99 207zM108 389l89 39 89-217-79-30-99 208z"/><path fill="#333" d="M9 92l198 89L79 478 9 448V92z"/><path fill="#4d8af0" d="M880 142l-198 89 128 296 70-29V142z"/></svg>
