<svg xmlns="http://www.w3.org/2000/svg" viewBox="0 0 880.4 573"><path d="M821 308l-2 32a7 7 0 01-7 7 7 7 0 01-7-8v-31l28-87-4-54 26-1-2 62z" fill="#a0616a"/><path d="M861 177c-12-3-22 0-29 11l-6-45a12 12 0 018-13 12 12 0 0115 8z" fill="#6c63ff"/><path d="M862 124c-27-11-54-4-87 1 0-6-4-14 0-18 5-5 5-10 2-16-7-14 3-28 13-41a23 23 0 0119-8l20 2c9 0 12 7 14 16 5 6 7 13 6 19 7 4 8 10 5 17-3 4-3 7 0 11a54 54 0 018 16z" fill="#2f2e41"/><path fill="#a0616a" d="M767 539h-13l-8-106 33-1-12 107z"/><path d="M768 573c-4 1-7-11-10-8-8 8-27 6-27 6a5 5 0 01-3-7 5 5 0 013-3l9-2 13-24 14-1a33 33 0 016 28c-1 5-3 10-5 11z" fill="#2f2e41"/><path fill="#a0616a" d="M852 539h-13l-8-106 34-6-13 112z"/><path d="M853 573c-4 1-7-11-9-8-8 8-28 6-28 6a5 5 0 01-3-7 5 5 0 014-3l8-2 14-24 14-1h1a38 38 0 014 31c-2 4-3 7-5 8zM880 438c-20 9-33-1-54 2-6 1-13-87-19-87-7 0-14 89-22 89a255 255 0 01-57-9c20-78 43-148 43-205l60-5 9 13c13 31 26 66 33 102z" fill="#2f2e41"/><circle cx="801" cy="80.3" r="27.8" fill="#a0616a"/><path fill="#a0616a" d="M832 129l-35 2-5-30 27-5 13 33z"/><path d="M834 228l-44 1-19 2c-9-30-17-61 2-87l22-22 34-1a27 27 0 0112 32c-8 26-7 52-7 75z" fill="#6c63ff"/><path d="M832 80a34 34 0 00-8-22V48h-30a17 17 0 00-18 17h20c-5 10-7 21-2 31 3 6 3 18-1 24a60 60 0 007 0c9 0 34 1 40-5 7-6-8-25-8-35z" fill="#2f2e41"/><path d="M786 311H608a4 4 0 00-4 4v187a4 4 0 004 4h178a4 4 0 004-4V315a4 4 0 00-4-4z" fill="#e6e6e6"/><path d="M782 317H612a3 3 0 00-3 3v178a3 3 0 003 3h170a3 3 0 003-3V320a3 3 0 00-3-3z" fill="#fff"/><path d="M770 314l-2 31a7 7 0 01-7 7 7 7 0 01-7-7l1-31 23-88 1-54 26-1-2 62z" fill="#a0616a"/><path d="M807 176c-11-5-21-3-30 6l1-45a12 12 0 0111-11 12 12 0 0113 10z" fill="#6c63ff"/><path d="M769 362a2 2 0 012 1v4a2 2 0 01-2 2H625a2 2 0 01-2-2v-4a2 2 0 012-1h144M769 379a2 2 0 012 2v3a2 2 0 01-2 2H625a2 2 0 01-2-2v-3a2 2 0 012-2h144" fill="#e6e6e6"/><path d="M769 396a2 2 0 012 2v4a2 2 0 01-2 2H625a2 2 0 01-2-2v-4a2 2 0 012-2h144" fill="#6c63ff"/><path d="M769 414a2 2 0 012 2v4a2 2 0 01-2 1H625a2 2 0 01-2-1v-4a2 2 0 012-2h144M769 431a2 2 0 012 2v4a2 2 0 01-2 2H625a2 2 0 01-2-2v-4a2 2 0 012-2h144M769 449a2 2 0 012 2v3a2 2 0 01-2 2H625a2 2 0 01-2-2v-3a2 2 0 012-2h144" fill="#e6e6e6"/><path d="M132 534h-14L86 317 55 534l-15-4c-8-93-19-190-12-232h108c16 42 5 140-4 236z" fill="#2f2e41"/><path d="M44 573a13 13 0 01-12-16l7-26c5-7 10-6 14 0l5-2 3 23-4 13a13 13 0 01-13 8zM130 573a13 13 0 0012-16l-7-26c-5-7-10-6-14 0l-5-2-3 23 4 13a13 13 0 0013 8z" fill="#2f2e41"/><circle cx="88.9" cy="44.9" r="31.5" fill="#ffb8b8"/><path fill="#ffb8b8" d="M108 103H68l2-42h38v42z"/><path d="M150 303H23c18-63 15-130 1-199l35-11 9-8c12 14 25 14 40-1l12 9 34 12c-18 66-21 133-4 198z" fill="#6c63ff"/><path d="M55 37a28 28 0 012-23C61 7 69 0 83 0c31-1 44 23 43 30s-8 23-8 23 3-16-4-18-38-7-47 0a18 18 0 00-7 16z" fill="#2f2e41"/><path d="M183 312H5a4 4 0 00-5 5v186a4 4 0 005 5h178a4 4 0 004-5V317a4 4 0 00-4-5z" fill="#e6e6e6"/><path d="M178 318H9a3 3 0 00-3 3v178a3 3 0 003 3h169a3 3 0 004-3V321a3 3 0 00-4-3z" fill="#fff"/><path d="M146 328a13 13 0 01-7-18l11-24-2-79-6-27 29-11 5 37-10 85-2 26a13 13 0 01-18 11zM30 328a13 13 0 007-18l-10-24 1-79 6-27-28-11-6 37 10 85 3 26a13 13 0 0017 11z" fill="#ffb8b8"/><path d="M173 172a100 100 0 00-31 14l-7-21 18-61a26 26 0 0117 23 247 247 0 003 45zM3 172a100 100 0 0132 14l7-21-16-62c-10 3-19 13-20 24a247 247 0 01-3 45z" fill="#6c63ff"/><path d="M166 362a2 2 0 012 2v3a2 2 0 01-2 2H21a2 2 0 01-1-2v-3a2 2 0 011-2h145M166 379a2 2 0 012 2v4a2 2 0 01-2 1H21a2 2 0 01-1-1v-4a2 2 0 011-2h145" fill="#e6e6e6"/><path d="M166 396a2 2 0 012 2v4a2 2 0 01-2 2H21a2 2 0 01-1-2v-4a2 2 0 011-2h145" fill="#6c63ff"/><path d="M166 414a2 2 0 012 2v4a2 2 0 01-2 1H21a2 2 0 01-1-1v-4a2 2 0 011-2h145M166 432a2 2 0 012 1v4a2 2 0 01-2 2H21a2 2 0 01-1-2v-4a2 2 0 011-1h145M166 449a2 2 0 012 2v3a2 2 0 01-2 2H21a2 2 0 01-1-2v-3a2 2 0 011-2h145M526 187H348a4 4 0 00-4 4v311a4 4 0 004 4h178a4 4 0 004-4V191a4 4 0 00-4-4z" fill="#e6e6e6"/><path d="M525 194a3 3 0 00-1-1 3 3 0 00-2-1H352a3 3 0 00-3 3v303a3 3 0 003 3h170a3 3 0 003-3V195a3 3 0 000-1z" fill="#fff"/><path d="M509 356a2 2 0 012 2v4a2 2 0 01-2 2H365a2 2 0 01-2-2v-4a2 2 0 012-2h144M509 374a2 2 0 012 2v3a2 2 0 01-2 2H365a2 2 0 01-2-2v-3a2 2 0 012-2h144" fill="#e6e6e6"/><path d="M509 391a2 2 0 012 2v4a2 2 0 01-2 1H365a2 2 0 01-2-1v-4a2 2 0 012-2h144" fill="#6c63ff"/><path d="M509 409a2 2 0 012 2v3a2 2 0 01-2 2H365a2 2 0 01-2-2v-3a2 2 0 012-2h144M509 426a2 2 0 012 2v4a2 2 0 01-2 2H365a2 2 0 01-2-2v-4a2 2 0 012-2h144M509 444a2 2 0 012 1v4a2 2 0 01-2 2H365a2 2 0 01-2-2v-4a2 2 0 012-1h144" fill="#e6e6e6"/><path d="M366 221a2 2 0 00-2 2v99a2 2 0 002 2h142a2 2 0 002-2v-99a2 2 0 00-2-2z" fill="#6c63ff"/><path d="M587 144l11 6 1-2-12-5zM631 170l-2 1 9 9 2-1-9-9zM609 156l10 7 2-1-11-8zM563 137l12 3v-2l-12-4zM679 258h-2l1 13h2l-1-13zM671 234l3 12 2-1-3-12zM660 211c3 3 4 7 6 11l2-1-6-11zM646 190l8 10 2-1-8-11zM544 122c-5 4-13 7-19 9 6 2 13 7 18 11l-3-9 10 1 1-2-11-1zM206 221l2 1 6-11-2-1-6 11zM198 245l2 1 3-12-2-1-3 12zM194 271h2l1-13h-2l-1 13zM218 199l2 1 8-10-2-2-8 11zM275 148l1 2 11-6v-1l-12 5zM299 138v2l12-3v-3l-12 4zM234 179l2 1 9-9-1-1-10 9zM253 162l2 1 10-7-1-2-11 8zM349 131c-6-2-14-5-19-9l4 9-11 1 1 2 10-1-3 9c5-4 12-9 18-11z" fill="#ccc"/><path d="M437 164a33 33 0 1133-33 33 33 0 01-33 33zm0-64a31 31 0 1031 31 31 31 0 00-31-31z" fill="#6c63ff"/><path fill="#6c63ff" d="M434 115h6v32h-6z"/><path fill="#6c63ff" d="M453 128v6h-32v-6z"/></svg>
