<svg xmlns="http://www.w3.org/2000/svg" width="75" height="50" viewBox="280 3 45 19"><path d="M277.5 8H275v8.9h2.5a4.45 4.45 0 003.1-1 4.58 4.58 0 001.6-3.4A4.35 4.35 0 00278 8zm2 6.7a3.17 3.17 0 01-2.3.7h-.5V9.5h.5a3.17 3.17 0 012.3.7 3.1 3.1 0 01.9 2.2 3.17 3.17 0 01-.9 2.3zm3.4 2.2h1.7V8h-1.7zm5.8-5.5c-1-.4-1.3-.6-1.3-1.1a1.11 1.11 0 011.2-1 2.1 2.1 0 011.4.7l.9-1.2a4 4 0 00-2.5-1 2.56 2.56 0 00-2.7 2.4v.1c0 1.2.5 1.9 2.1 2.4a6.12 6.12 0 011.2.5 1.05 1.05 0 01.5.9 1.31 1.31 0 01-1.2 1.3h-.1a2 2 0 01-1.8-1.2l-1.1 1.1a3.4 3.4 0 003 1.7 2.82 2.82 0 003-2.7V14c-.1-1.2-.6-1.8-2.6-2.6zm3.1 1.1a4.57 4.57 0 004.5 4.6 5.45 5.45 0 002.2-.5v-2a2.61 2.61 0 01-2 1 2.82 2.82 0 01-2.9-2.8v-.2a3 3 0 012.8-3.1 2.81 2.81 0 012.1 1v-2a3.84 3.84 0 00-2.1-.5 4.33 4.33 0 00-4.6 4.5zm20.3 1.5l-2.3-6H308l3.7 9.1h.9l3.7-9.1h-1.8l-2.4 6zm5 2.9h4.8v-1.5h-3.1V13h3v-1.5h-3v-2h3.1V8h-4.8zm11.5-6.3c0-1.7-1.1-2.6-3.1-2.6H323v8.9h1.7v-3.6h.2l2.3 3.6h2.1l-2.7-3.7a2.43 2.43 0 002-2.6zm-3.4 1.5h-.5V9.4h.5c1.1 0 1.6.5 1.6 1.3s-.5 1.4-1.6 1.4z" fill="#aab7c4"/><path d="M303.7 7.9a4.59 4.59 0 00-4.6 4.6 4.74 4.74 0 004.6 4.7 4.61 4.61 0 004.7-4.6 4.76 4.76 0 00-4.7-4.7z" style="isolation:isolate" fill="#aab7c4" opacity=".5"/></svg>
