<svg width="87" height="112" xmlns="http://www.w3.org/2000/svg">
  <g fill="#E4E8EE" fill-rule="evenodd">
    <path d="M42.801 67.55l.946-.955c-.647.058-.718-.045-.978-.482-1.125 1.173.169.358-.83 1.53.682-.513.736-.174.862-.092m2.186 1.22c-.297.463.187.413-.37 1.049.358-.216 1.087-.988.956-.467-.484.527-.523.38-.622.328-.572.753.235.449.818-.134.32.032-.583.863-.422.998.177-.032.286-.321.716-.707-.172.3-.55.733-.52.9 1.211-1.248.266.133.438.436.177-.031.287-.321.718-.706-.24.614-.03.44-.329 1.093.065.146.872-.81 1.248-1.125-.096-.02-.478.386-.769.655.224-.358.894-1.004.765-1.135 1.115-.65.509.46 1.11.171-1.055 1.038-.526-.27-1.971 1.348.585.227 2.304-1.008.816.836 1.495-.959-.299 1.34 1.543-.345-.07.366-.336.853-.582 1.33-.017.342 1.044-.885.965-.453-.741.678-.01.783-.245 1.19.178-.03.29-.316.727-.696-1.496 1.992 1.716-.467.089 1.533.097.019.485-.382.778-.646-1.114 1.499 1.308-.1-.11 1.338.691-.517.98-.458 1.356-.523.215 0-.258.423-.638.79.745-.444-.218.857 1.018-.39-1.66 1.966 1.632-.311-.026 1.442 1.363-.906-.217 1.676 1.54.165.298-.023-.417.57-.595.836 1.578-.533.41 1.793 2.546.747-.39.644-.375 1.218.76.336-.508.765.34.258-.374 1.085.492-.085.694-.03 1.322-.547.05.128-.814.795-.903 1.005 1.379-.892-.453 1.726 1.725.396.216.005-.266.416-.656.775-.075.365.88-.659 1.14-.745-.758 1.018.927.177-.396 1.56.172.209.673-.315.937-.467-.691.925.088.539.718.288-.954 1.099-.395 1.02.641.726-.275.354-.378.37-.755.666.083 1.103 2.835-.921 1.05 1.19 1.054-.933.632-.504.345-.118.245-.006.338-.405.805-.608.046.128-.83.779-.921.985.192.007.288.142.943-.454.297-.011-.437.557-.624.815.054.153.353-.014.899-.505-.23.284.088.262-.624.816.228-.113.531-.322.853-.557-.013.24-.524.759-.489.971.19.16.744-.836.808-.607.258.15.01.198-.67.762.2.166.485-.189 1.107-.772.198.07-.202.473-.88 1.03.025.301 1.015-.647 1.04-.346-.748.707-.83.555-1.576 1.262.09-.416-.804-.2-1.19-.334.115 2.106 1.302 2.875 1.923 3.766.664-.531-1.002 1.541.825-.067.145.073-.069.342-.637.804 1.041 1.712 2.152 3.488 3.686 3.876.794 2.175.482 5.096 1.752 6.97-.88.593-.602.464-1.587 1.243 1.163.085-1.075 2.002-.751 2.29-1.044.837-.912.317-1.8.976-.054.39 1.12.167-.299 1.24-.029-.397-.568-.21-.762-.416-.973.902-.17.909-.833 1.65-1.376 1.076-1.982 1.187-2.043 1.748-4.125-1.4-6.55-6.06-10.092-8.624-.983-.714-2.163-1.159-1.985-2.324-4.988-3.018-8.837-8.437-13.431-12.163-5.3-4.299-10.63-8.195-14.652-13.317-1.284-1.621-3.35-2.345-4.518-4.057-2.37-3.39-5.416-6.107-8.25-9.068-1.423-1.478-2.77-3.05-3.988-4.788a25.797 25.797 0 0 1-3.064-5.998c1.083-2.57.361-3.555 1.125-5.88 2.097.85 8.454-6.138 9.914-4.272.835-.622 1.661-.945 1.542-.076.757-1.473-.194-1.494.032-2.518 1.885-.144 2.85.94 3.754 2.073 4.708 5.973 8.93 11.702 14.022 15.655-.44.976.281.755.37 1.232.21 1.146 1.94.819 2.424 1.727.532.992 1.551 1.7 2.32 3.055.262-.296.103-.293.08-.386.258.026 1.211-.366.121.572.73.585 1.457 1.745 2.372 1.293-.374.751.067 1.69 1.276.756.02.096-.383.48-.65.774.742-.361.824 1.5 1.671 1.136.025.534 1.176-.166 1.077.57.165.036 1.048-1.04 1.277-1.103-.198.838 1.641.072 1.234 1.208-.73.652-.34.196-.433.044-.845.861-.63 1.014-1.175 1.673.118.189 1.34-1.307 1.191-.71-1.237.898-.154.911.538.534-.752.557-.859 1.71.44.436M28.109 51.775c.797-.997.526-.106.807-.188-.843.791-.304-.002-.807.188m2.272 1.083c.33-.078-.178.472.038.48-.692.76-.747.281-.038-.48m1.299 2.49c-.277-.104-.392-.326-.015-.914.224-.058.785-.098.015.913m15.45 14.601c-.204-.001.034-.29.044-.43.431-.402.628-.452.675-.276-.24.236-.48.47-.718.706m2.464 2.033c.353-.197.816-.552.965-.451l-.723.698c-.318.01-.261.067-.242-.247m-16.63-15.48c1.343-1.082 1.351.07 1.305.72-1.049.812-1.255-.267-1.305-.72m9.713 8.128c-.321.516.16.49.264.717-.675.532-1.095.279-.264-.717m1.797 2.214c1.032-.686.826.267.45.919-.39.07-.554-.424-.45-.92m-5.588-4.45c1.235-1.317.438.237 1.064.085-.924.744-.697.18-1.064-.084m1.313.323c.154.086.274.195.067.53-.596.529-.823.287-.067-.53m.695 2.063c1.44-1.51 1.588-.506 1.166.186-.723.46-.483-.586-1.166-.186m22.018 23.146c1.077-.833 1.027-.22 1.004.139-.592.284-.839.125-1.004-.14m2.046 1.878c.57-.466.665-.332.738-.171-.858.785-1.078.591-.738.171M36.26 59.038c-.44-.012-.22-1.119-1.216-.21.099.343.939.16.201 1.1 1.166-1.363.096.148 1.015-.89M66.882 34.437l1.115-.744c-.64-.054-.684-.164-.839-.625-1.336.916.084.37-1.13 1.307.767-.367.748-.037.854.062zm1.856 1.525c-.382.39.096.423-.576.934.39-.146 1.255-.758 1.021-.284-.577.42-.584.275-.669.208-.708.619.133.466.817.01.302.082-.74.722-.613.878.177 0 .342-.258.836-.554-.228.257-.68.606-.687.77 1.425-.987.23.17.334.488.177 0 .341-.258.836-.553-.356.544-.12.414-.54.987.033.148 1.006-.63 1.432-.87-.09-.033-.54.291-.874.5.287-.304 1.064-.81.967-.955 1.207-.438.401.516 1.04.337-1.23.817-.455-.339-2.177.967.522.308 2.432-.595.627.922 1.636-.677-.553 1.227 1.561-.085-.14.335-.492.758-.823 1.172-.084.323 1.182-.68 1.023-.281-.851.53-.163.744-.47 1.095.177 0 .343-.256.838-.552-1.833 1.669 1.749-.18-.212 1.475.09.034.543-.29.877-.496-1.367 1.26 1.282.102-.36 1.256.766-.388 1.035-.29 1.413-.298.208.031-.33.366-.766.659.805-.315-.37.783 1.059-.223-1.975 1.629 1.641-.063-.29 1.367 1.487-.668-.518 1.567 1.464.377.292.02-.509.484-.73.712 1.627-.287.069 1.774 2.331 1.068-.491.56-.577 1.11.68.42-.625.66.288.29-.55.984.492-.018.68.063 1.38-.347.026.128-.928.65-1.052.838 1.493-.67-.735 1.587 1.61.602.208.032-.331.363-.771.654-.134.34.968-.516 1.236-.564-.912.874.867.286-.653 1.438.131.222.708-.215.99-.325-.828.794-.007.526.647.364-1.11.928-.55.923.508.768-.326.302-.428.306-.844.543-.095 1.062 2.91-.54.833 1.26 1.175-.766.697-.406.355-.071.24.022.394-.348.88-.487.025.129-.932.646-1.053.831.185.03.258.172.99-.323.291.024-.514.482-.736.708.027.152.345.026.954-.378-.268.244.045.259-.737.706.24-.081.567-.245.918-.432-.05.227-.629.664-.628.87.159.175.855-.713.882-.487.226.173-.022.19-.773.651.167.182.502-.124 1.2-.611.18.09-.273.43-1.019.885-.023.291 1.087-.503 1.064-.211-.837.59-.893.435-1.729 1.026.15-.388-.752-.285-1.107-.46-.223 2.039.842 2.905 1.317 3.828.726-.44-1.203 1.37.815.024.131.087-.115.321-.738.703.763 1.763 1.624 3.58 3.078 4.101.481 2.17-.174 4.955.864 6.878-.934.497-.646.397-1.705 1.064 1.135.185-1.284 1.848-.997 2.16-1.12.722-.933.225-1.881.787-.095.378 1.087.267-.428 1.187.014-.393-.537-.259-.709-.478-1.057.791-.265.873-.998 1.54-1.473.926-2.084.976-2.203 1.523-3.953-1.787-5.871-6.646-9.038-9.622-.882-.83-1.998-1.426-1.67-2.545-4.542-3.654-7.528-9.588-11.4-14.048-4.47-5.149-8.965-10.053-11.773-15.931-.893-1.863-2.743-3.045-3.493-4.974-3.018-7.705-9.151-13.421-9.525-22.987 1.79-2.118 1.395-3.246 2.82-5.206 1.745 1.388 9.848-3.421 10.645-1.312.969-.36 1.842-.45 1.474.324 1.148-1.175.26-1.434.786-2.329 1.803.35 2.396 1.582 2.908 2.86 2.662 6.695 5.154 13.034 9.036 17.815-.661.83.083.769.05 1.236-.077 1.124 1.657 1.167 1.898 2.122.267 1.046 1.09 1.905 1.511 3.337.32-.23.167-.257.166-.35.242.075 1.248-.114-.016.566.567.692.992 1.934 1.98 1.672-.528.642-.31 1.612 1.062.948-.003.094-.475.385-.797.614.794-.208.465 1.571 1.36 1.379-.093.51 1.167.051.911.733.15.064 1.233-.803 1.467-.822-.376.762 1.563.349.93 1.355-.842.492-.368.127-.426-.033-.998.672-.822.854-1.487 1.386.075.197 1.57-1.013 1.3-.472-1.383.642-.339.84.408.596-.843.402-1.185 1.48.334.488zM56.536 16.695c1.017-.765.528.013.817-.005-1.007.562-.29-.067-.817.005zm1.882 1.499c.333-.004-.291.405-.088.458-.853.57-.781.107.088-.458zm.61 2.608c-.239-.155-.295-.386.211-.861.23-.01.777.067-.21.86zm11.53 16.632c-.196-.035.093-.27.13-.402.5-.312.7-.327.708-.152l-.838.554zm1.98 2.316c.379-.134.895-.399 1.021-.28l-.837.551c-.309-.038-.266.023-.184-.271zM59.973 22.146c1.547-.749 1.271.337 1.07.94-1.2.556-1.134-.503-1.07-.94zm7.424 9.5c-.423.43.044.491.096.725-.767.387-1.115.07-.096-.725zm1.25 2.404c1.14-.476.74.39.24.945-.39.003-.445-.494-.24-.945zm-4.4-5.197c1.483-1.016.367.303 1.005.273-1.056.534-.714.045-1.005-.273zm1.192.544c.127.109.22.234-.055.511-.691.393-.856.123.055-.511zm.21 2.074c1.72-1.172 1.637-.198 1.08.383-.796.307-.334-.64-1.08-.383zm17.04 25.258c1.176-.675 1.034-.097.96.242-.621.208-.84.029-.96-.242zm1.721 2.016c.625-.386.699-.248.747-.085-.952.659-1.139.45-.747.085zM62.512 25.188c-.42-.097.052-1.095-1.119-.433.015.343.864.331-.065 1.076 1.44-1.06.057.158 1.184-.643z"/>
  </g>
</svg>
