<?xml version="1.0" encoding="utf-8"?>
<!-- Generator: Adobe Illustrator 22.1.0, SVG Export Plug-In . SVG Version: 6.00 Build 0)  -->
<svg version="1.1" id="Layer_1" xmlns="http://www.w3.org/2000/svg" xmlns:xlink="http://www.w3.org/1999/xlink" x="0px" y="0px"
	 viewBox="0 0 244.1 116.7" style="enable-background:new 0 0 244.1 116.7;" xml:space="preserve">
<style type="text/css">
	.st0{fill:#AAB7C4;}
</style>
<path class="st0" d="M48.7,14.5C51.8,10.7,54,5.3,53.4,0C48.8,0.2,43.3,3.1,40,6.9c-2.9,3.4-5.5,8.8-4.8,14.1
	C40.3,21.4,45.5,18.4,48.7,14.5"/>
<path class="st0" d="M61.8,48.3c-0.1-11.5,9.4-17.1,9.8-17.3C66.3,23.2,58,22.1,55,22c-7.1-0.7-13.8,4.2-17.4,4.2
	c-3.6,0-9.1-4.1-15-3.9c-7.7,0.1-14.8,4.5-18.8,11.4c-8,13.9-2,34.5,5.8,45.8C13.4,85,17.9,91.2,23.9,91c5.8-0.2,7.9-3.7,14.9-3.7
	c7,0,8.9,3.7,15,3.6C60,90.7,64,85.2,67.8,79.6c4.4-6.4,6.2-12.6,6.3-12.9C73.9,66.6,62,62.1,61.8,48.3"/>
<path class="st0" d="M135.6,14.5c-2.3-2.2-5.3-4-8.9-5.2c-3.5-1.2-7.8-1.8-12.6-1.8c-3.3,0-6.5,0.2-9.3,0.5
	c-2.8,0.3-5.4,0.7-7.7,1.1l-0.7,0.1v81h7.4V56.2c2.5,0.4,5.3,0.6,8.5,0.6c4.2,0,8.1-0.5,11.6-1.6c3.6-1.1,6.7-2.7,9.3-4.9
	c2.6-2.2,4.7-4.9,6.2-8.1c1.5-3.2,2.3-7,2.3-11.2c0-3.5-0.6-6.7-1.6-9.4C139.1,18.9,137.6,16.5,135.6,14.5 M128.8,45.4
	c-3.8,3.2-9.2,4.8-16,4.8c-1.9,0-3.6-0.1-5.3-0.2c-1.4-0.1-2.6-0.3-3.7-0.6V14.9c1-0.2,2.2-0.3,3.6-0.5c1.8-0.2,4-0.3,6.5-0.3
	c3.1,0,5.9,0.4,8.4,1.1c2.5,0.7,4.7,1.8,6.5,3.2c1.8,1.4,3.2,3.2,4.1,5.3c1,2.2,1.5,4.8,1.5,7.7C134.5,37.6,132.6,42.3,128.8,45.4"
	/>
<path class="st0" d="M186.1,82.7c-0.1-2.3-0.1-4.6-0.1-6.9V53.3c0-2.7-0.3-5.4-0.8-8.1c-0.5-2.8-1.6-5.3-3.1-7.5
	c-1.5-2.3-3.6-4.1-6.2-5.5c-2.6-1.4-6-2.1-10.2-2.1c-3,0-6,0.4-8.7,1.2c-2.8,0.8-5.5,2.1-8.2,3.9l-0.6,0.4l2.5,5.8l0.9-0.6
	c1.9-1.3,4.1-2.3,6.4-3.1c2.3-0.7,4.7-1.1,7.1-1.1c3.1,0,5.5,0.6,7.3,1.7c1.8,1.1,3.1,2.5,4,4.1c0.9,1.7,1.5,3.4,1.7,5.3
	c0.3,1.9,0.4,3.6,0.4,5.1v0.7c-11,0-19.5,1.8-25.2,5.4c-6,3.8-9,9.3-9,16.2c0,2,0.4,4,1.1,6c0.7,2,1.8,3.8,3.2,5.4
	c1.4,1.5,3.3,2.8,5.5,3.8c2.2,1,4.8,1.4,7.7,1.4c2.3,0,4.4-0.3,6.4-0.9c1.9-0.6,3.7-1.3,5.2-2.3c1.5-1,2.9-2,4-3.2
	c0.5-0.5,1-1,1.4-1.6h0.3l0.7,6.6h7.1l-0.2-1C186.4,87.1,186.1,84.9,186.1,82.7 M178.5,71.1c0,0.8-0.2,1.9-0.6,3.2
	c-0.5,1.4-1.1,2.7-2,4c-0.9,1.3-1.9,2.4-3.2,3.4c-1.3,1-2.8,1.8-4.5,2.4c-1.7,0.6-3.7,0.9-5.9,0.9c-1.3,0-2.6-0.2-3.9-0.7
	c-1.2-0.4-2.3-1.1-3.3-2c-0.9-0.9-1.7-2-2.3-3.3c-0.6-1.3-0.9-3-0.9-4.9c0-3.2,0.9-5.7,2.5-7.6c1.7-2,4-3.5,6.6-4.5
	c2.7-1,5.7-1.7,8.9-2c2.6-0.2,5.2-0.4,7.6-0.4c0.3,0,0.6,0,0.9,0V71.1z"/>
<path class="st0" d="M201.6,114.7c1.9-1,4-2.5,6.3-4.5c1.9-1.7,3.7-3.7,5.3-6c1.6-2.2,3.1-4.9,4.6-7.8c1.5-2.9,3-6.2,4.5-9.9
	c1.5-3.6,3.1-7.7,4.7-12.1l17-43.2h-7.9l-13.8,37.5c-0.9,2.3-1.7,4.5-2.4,6.8c-0.3,1.1-0.7,2.2-1,3.2h-0.3c-0.3-1.1-0.7-2.1-1.1-3.3
	c-0.7-2.2-1.5-4.4-2.3-6.4l-14.7-37.7h-7.9l21.1,54.3c0.6,1.3,0.7,1.9,0.7,2.2c0,0.1,0,0.5-0.7,2.2c-1.3,3.2-2.8,6.1-4.5,8.3
	c-1.7,2.3-3.2,4.2-4.6,5.5c-1.6,1.6-3.3,2.9-4.9,3.9c-1.7,1-3.3,1.8-4.7,2.5l-0.8,0.4l2.6,6.2"/>
</svg>
