<svg xmlns="http://www.w3.org/2000/svg" width="120" height="50" viewBox="138 5 52 15"><path d="M164.4 11.5v-1.3a1.08 1.08 0 00-1-1H162v2.3h-1.5V5h3.7a1.69 1.69 0 011.9 1.4v.5a1.65 1.65 0 01-.9 1.5 1.49 1.49 0 01.7 1.5v1.6h-1.5m-2.5-3.8h1.6a.68.68 0 00.8-.4.68.68 0 00-.4-.8h-2v1.2m21.3 3.8l-2.4-4.4v4.4h-3l-.5-1.4h-2.8l-.5 1.4h-3.2s-2-.3-2-3.1c0-3.4 1.7-3.5 2.4-3.5h1.9v1.5h-1.5a1.24 1.24 0 00-1.1 1.4v.5c0 2.2 2.6 1.5 2.7 1.5l1.9-4.9h2.1l2.3 5.9V5h2.1l2.4 4.3V5h1.5v6.6l-2.3-.1m-8-3h1.5l-.7-1.9-.8 1.9m-22.7 3V7l-1.9 4.5h-1.2L147.5 7v4.5h-3l-.5-1.4h-2.8l-.5 1.4H139l2.5-6.6h2.1l2.3 6V5h2.4l1.7 4.1 1.7-4.1h2.4v6.6l-1.6-.1m-10.7-3h1.5l-.7-1.9-.8 1.9m13.1 3V5h4.7v1.5h-3.2v1h3.1V9h-3.1v1.1h3.2v1.4h-4.7m11.8.1V5h1.5v6.6h-1.5M170 20v-1.3a1 1 0 00-1.1-1h-1.6V20h-1.6v-6.5h3.9a1.67 1.67 0 012 1.5v.4a1.65 1.65 0 01-.9 1.5 1.76 1.76 0 01.8 1.5V20H170m-2.6-3.8h1.7a.63.63 0 00.4-1.2.3.3 0 00-.4 0h-1.7v1.2m-8.1 3.8h-1.4l-1.7-1.9-1.7 1.9h-6v-6.5h5.9l1.8 2.1 1.9-2.1h5.1a1.73 1.73 0 012 1.5v.4c0 1.9-.7 2.5-2.8 2.5h-1.6V20h-1.5m-2-3.2l2 2.3v-4.5l-2 2.2m-7.2 1.8h3.4l1.6-1.8-1.6-1.8h-3.4v1h3.3v1.5h-3.3v1.1m10.8-2.4h1.7a.63.63 0 00.4-1.2.3.3 0 00-.4 0h-1.7v1.2M181 20h-2.9v-1.5h2.5s.9.1.9-.5-1.4-.5-1.4-.5a1.93 1.93 0 01-2.2-1.6v-.3a1.88 1.88 0 011.7-2h3.4V15h-2.5s-.9-.2-.9.5c0 .5 1.2.5 1.2.5s2.5-.2 2.5 1.8a2.1 2.1 0 01-1.8 2.3h-.4l-.1-.1m-8.6 0v-6.5h5V15H174v1h3.3v1.5H174v1.1h3.4V20h-5m14.2 0h-2.9v-1.5h2.5s.9.1.9-.5-1.4-.5-1.4-.5a1.93 1.93 0 01-2.2-1.7v-.3a1.88 1.88 0 011.7-2h3.4V15h-2.5s-.9-.2-.9.5c0 .5 1.2.5 1.2.5s2.5-.2 2.5 1.8a2.1 2.1 0 01-1.8 2.3h-.4c0-.1 0-.1-.1-.1m46.7 4h-4.1A11.42 11.42 0 01218 12.6 11.17 11.17 0 01228.7 1h4.6A11.61 11.61 0 01245 12.5v.1A11.72 11.72 0 01233.3 24z" fill="#aab7c4"/></svg>