<svg xmlns="http://www.w3.org/2000/svg" viewBox="0 0 244.1 116.7"><path fill="#aab7c4" d="M48.7 14.5C51.8 10.7 54 5.3 53.4 0 48.8.2 43.3 3.1 40 6.9c-2.9 3.4-5.5 8.8-4.8 14.1 5.1.4 10.3-2.6 13.5-6.5M61.8 48.3c-.1-11.5 9.4-17.1 9.8-17.3-5.3-7.8-13.6-8.9-16.6-9-7.1-.7-13.8 4.2-17.4 4.2-3.6 0-9.1-4.1-15-3.9-7.7.1-14.8 4.5-18.8 11.4-8 13.9-2 34.5 5.8 45.8C13.4 85 17.9 91.2 23.9 91c5.8-.2 7.9-3.7 14.9-3.7s8.9 3.7 15 3.6c6.2-.2 10.2-5.7 14-11.3 4.4-6.4 6.2-12.6 6.3-12.9-.2-.1-12.1-4.6-12.3-18.4M135.6 14.5c-2.3-2.2-5.3-4-8.9-5.2-3.5-1.2-7.8-1.8-12.6-1.8-3.3 0-6.5.2-9.3.5-2.8.3-5.4.7-7.7 1.1l-.7.1v81h7.4v-34c2.5.4 5.3.6 8.5.6 4.2 0 8.1-.5 11.6-1.6 3.6-1.1 6.7-2.7 9.3-4.9 2.6-2.2 4.7-4.9 6.2-8.1 1.5-3.2 2.3-7 2.3-11.2 0-3.5-.6-6.7-1.6-9.4s-2.5-5.1-4.5-7.1m-6.8 30.9c-3.8 3.2-9.2 4.8-16 4.8-1.9 0-3.6-.1-5.3-.2-1.4-.1-2.6-.3-3.7-.6V14.9c1-.2 2.2-.3 3.6-.5 1.8-.2 4-.3 6.5-.3 3.1 0 5.9.4 8.4 1.1 2.5.7 4.7 1.8 6.5 3.2 1.8 1.4 3.2 3.2 4.1 5.3 1 2.2 1.5 4.8 1.5 7.7.1 6.2-1.8 10.9-5.6 14M186.1 82.7c-.1-2.3-.1-4.6-.1-6.9V53.3c0-2.7-.3-5.4-.8-8.1-.5-2.8-1.6-5.3-3.1-7.5-1.5-2.3-3.6-4.1-6.2-5.5-2.6-1.4-6-2.1-10.2-2.1-3 0-6 .4-8.7 1.2-2.8.8-5.5 2.1-8.2 3.9l-.6.4 2.5 5.8.9-.6c1.9-1.3 4.1-2.3 6.4-3.1 2.3-.7 4.7-1.1 7.1-1.1 3.1 0 5.5.6 7.3 1.7 1.8 1.1 3.1 2.5 4 4.1.9 1.7 1.5 3.4 1.7 5.3.3 1.9.4 3.6.4 5.1v.7c-11 0-19.5 1.8-25.2 5.4-6 3.8-9 9.3-9 16.2 0 2 .4 4 1.1 6 .7 2 1.8 3.8 3.2 5.4 1.4 1.5 3.3 2.8 5.5 3.8s4.8 1.4 7.7 1.4c2.3 0 4.4-.3 6.4-.9 1.9-.6 3.7-1.3 5.2-2.3 1.5-1 2.9-2 4-3.2.5-.5 1-1 1.4-1.6h.3l.7 6.6h7.1l-.2-1c-.3-2.2-.6-4.4-.6-6.6m-7.6-11.6c0 .8-.2 1.9-.6 3.2-.5 1.4-1.1 2.7-2 4-.9 1.3-1.9 2.4-3.2 3.4-1.3 1-2.8 1.8-4.5 2.4-1.7.6-3.7.9-5.9.9-1.3 0-2.6-.2-3.9-.7-1.2-.4-2.3-1.1-3.3-2-.9-.9-1.7-2-2.3-3.3-.6-1.3-.9-3-.9-4.9 0-3.2.9-5.7 2.5-7.6 1.7-2 4-3.5 6.6-4.5 2.7-1 5.7-1.7 8.9-2 2.6-.2 5.2-.4 7.6-.4h.9v11.5zM201.6 114.7c1.9-1 4-2.5 6.3-4.5 1.9-1.7 3.7-3.7 5.3-6 1.6-2.2 3.1-4.9 4.6-7.8 1.5-2.9 3-6.2 4.5-9.9 1.5-3.6 3.1-7.7 4.7-12.1l17-43.2h-7.9l-13.8 37.5c-.9 2.3-1.7 4.5-2.4 6.8-.3 1.1-.7 2.2-1 3.2h-.3c-.3-1.1-.7-2.1-1.1-3.3-.7-2.2-1.5-4.4-2.3-6.4l-14.7-37.7h-7.9l21.1 54.3c.6 1.3.7 1.9.7 2.2 0 .1 0 .5-.7 2.2-1.3 3.2-2.8 6.1-4.5 8.3-1.7 2.3-3.2 4.2-4.6 5.5-1.6 1.6-3.3 2.9-4.9 3.9-1.7 1-3.3 1.8-4.7 2.5l-.8.4 2.6 6.2"/></svg>
