<svg xmlns="http://www.w3.org/2000/svg" viewBox="0 0 41 16.4"><style>.st0{fill:#aab7c4}.st1{fill:#acb7c3}</style><g transform="translate(-185 -400)"><g transform="translate(185 400)"><g transform="translate(.261 .261)"><g transform="translate(17.615 .826)"><path class="st0" d="M1.6 1.5v4.1h2.5c.6 0 1.1-.2 1.5-.6.4-.4.6-.9.6-1.4 0-.5-.2-1-.6-1.4-.3-.4-.8-.7-1.4-.7H1.6zm0 5.6v4.7H.1V.1h4c1 0 1.9.3 2.6 1 .7.7 1.1 1.5 1.1 2.5s-.4 1.8-1.1 2.5c-.7.7-1.6 1-2.6 1H1.6z"/><path class="st0" d="M9.3 9.4c0 .4.2.7.5 1 .3.3.7.4 1.2.4.6 0 1.2-.2 1.7-.7.5-.5.7-1 .7-1.6-.5-.4-1.1-.6-2-.6-.6 0-1.1.1-1.5.4-.4.3-.6.6-.6 1.1m2-5.9c1.1 0 2 .3 2.6.9.6.6 1 1.4 1 2.4v4.9h-1.4v-1.1h-.1c-.6.9-1.5 1.4-2.5 1.4-.9 0-1.6-.3-2.2-.8-.6-.5-.9-1.2-.9-2s.3-1.5.9-2c.6-.5 1.5-.7 2.5-.7.9 0 1.6.2 2.2.5v-.2c0-.5-.2-1-.6-1.3-.4-.4-.9-.5-1.5-.5-.8 0-1.5.4-2 1.1L8 5.1c.8-1 1.8-1.6 3.3-1.6"/><g transform="translate(15.085 3.76)"><path class="st0" d="M8 0L3 11.6H1.5l1.8-4.1L0 0h1.7L4 5.8h.1L6.4 0z"/></g></g><g><path d="M13.2 6.9c0-.5 0-.9-.1-1.4H6.7v2.6h3.6c-.2.8-.6 1.6-1.3 2v1.7h2.2c1.3-1.2 2-2.9 2-4.9" fill="#c0c9d2"/><path class="st1" d="M6.7 13.4c1.8 0 3.3-.6 4.5-1.6L9 10.1c-.6.4-1.4.6-2.3.6C5 10.8 3.5 9.6 3 8H.7v1.7c1.1 2.2 3.4 3.7 6 3.7"/><path d="M3 8c-.2-.4-.3-.8-.3-1.3s.1-.9.3-1.3V3.7H.7c-.4.9-.7 1.9-.7 3s.3 2.1.7 3L3 8z" fill="#d6dbe0"/><path class="st1" d="M6.7 2.7c1 0 1.9.3 2.6 1l1.9-1.9C10.1.7 8.5 0 6.7 0 4.1 0 1.8 1.5.7 3.7L3 5.4c.5-1.6 2-2.7 3.7-2.7"/></g></g><path fill="none" d="M0 0h41.3v18H0z"/></g></g></svg>
