<?xml version="1.0" encoding="utf-8"?>
<!-- Generator: Adobe Illustrator 22.1.0, SVG Export Plug-In . SVG Version: 6.00 Build 0)  -->
<svg version="1.1" id="Layer_1" xmlns="http://www.w3.org/2000/svg" xmlns:xlink="http://www.w3.org/1999/xlink" x="0px" y="0px"
	 viewBox="0 0 41 16.4" style="enable-background:new 0 0 41 16.4;" xml:space="preserve">
<style type="text/css">
	.st0{fill:#AAB7C4;}
	.st1{fill:#C0C9D2;}
	.st2{fill:#ACB7C3;}
	.st3{fill:#D6DBE0;}
	.st4{fill:none;}
</style>
<title>GPay Brand Mark</title>
<desc>Created with Sketch.</desc>
<g id="GPAY---SVGs" transform="translate(-185.000000, -400.000000)">
	<g id="GPay-Brand-Mark" transform="translate(185.000000, 400.000000)">
		<g id="GPay" transform="translate(0.261474, 0.261474)">
			<g id="Pay" transform="translate(17.615069, 0.825706)">
				<path id="Fill-1" class="st0" d="M1.6,1.5v4.1h2.5c0.6,0,1.1-0.2,1.5-0.6c0.4-0.4,0.6-0.9,0.6-1.4c0-0.5-0.2-1-0.6-1.4
					C5.3,1.8,4.8,1.5,4.2,1.5L1.6,1.5L1.6,1.5z M1.6,7.1v4.7H0.1V0.1h4c1,0,1.9,0.3,2.6,1c0.7,0.7,1.1,1.5,1.1,2.5
					c0,1-0.4,1.8-1.1,2.5c-0.7,0.7-1.6,1-2.6,1L1.6,7.1L1.6,7.1z"/>
				<path id="Fill-3" class="st0" d="M9.3,9.4c0,0.4,0.2,0.7,0.5,1c0.3,0.3,0.7,0.4,1.2,0.4c0.6,0,1.2-0.2,1.7-0.7
					c0.5-0.5,0.7-1,0.7-1.6c-0.5-0.4-1.1-0.6-2-0.6c-0.6,0-1.1,0.1-1.5,0.4C9.5,8.6,9.3,8.9,9.3,9.4 M11.3,3.5c1.1,0,2,0.3,2.6,0.9
					c0.6,0.6,1,1.4,1,2.4v4.9h-1.4v-1.1h-0.1c-0.6,0.9-1.5,1.4-2.5,1.4c-0.9,0-1.6-0.3-2.2-0.8c-0.6-0.5-0.9-1.2-0.9-2
					c0-0.8,0.3-1.5,0.9-2c0.6-0.5,1.5-0.7,2.5-0.7c0.9,0,1.6,0.2,2.2,0.5V6.8c0-0.5-0.2-1-0.6-1.3c-0.4-0.4-0.9-0.5-1.5-0.5
					c-0.8,0-1.5,0.4-2,1.1L8,5.1C8.8,4.1,9.8,3.5,11.3,3.5"/>
				<g id="Group-7" transform="translate(15.084923, 3.759447)">
					<polygon id="Fill-5" class="st0" points="8,0 3,11.6 1.5,11.6 3.3,7.5 0,0 1.7,0 4,5.8 4.1,5.8 6.4,0 					"/>
				</g>
			</g>
			<g id="G">
				<path id="Fill-8" class="st1" d="M13.2,6.9c0-0.5,0-0.9-0.1-1.4H6.7v2.6h3.6c-0.2,0.8-0.6,1.6-1.3,2v1.7h2.2
					C12.5,10.6,13.2,8.9,13.2,6.9"/>
				<path id="Fill-10" class="st2" d="M6.7,13.4c1.8,0,3.3-0.6,4.5-1.6L9,10.1c-0.6,0.4-1.4,0.6-2.3,0.6C5,10.8,3.5,9.6,3,8H0.7v1.7
					C1.8,11.9,4.1,13.4,6.7,13.4"/>
				<path id="Fill-12" class="st3" d="M3,8C2.8,7.6,2.7,7.2,2.7,6.7S2.8,5.8,3,5.4V3.7H0.7C0.3,4.6,0,5.6,0,6.7s0.3,2.1,0.7,3L3,8z"
					/>
				<path id="Fill-14" class="st2" d="M6.7,2.7c1,0,1.9,0.3,2.6,1v0l1.9-1.9C10.1,0.7,8.5,0,6.7,0c-2.6,0-4.9,1.5-6,3.7L3,5.4
					C3.5,3.8,5,2.7,6.7,2.7"/>
			</g>
		</g>
		<polygon id="Shape" class="st4" points="0,0 41.3,0 41.3,18 0,18 		"/>
	</g>
</g>
</svg>
