<svg xmlns="http://www.w3.org/2000/svg" width="200" height="50" viewBox="47 3 86 19"><title>mastercard</title><path d="M83.2,10a2,2,0,0,0-1.8.9,1.94,1.94,0,0,0-1.7-.9,1.66,1.66,0,0,0-1.5.7v-.6H77.1V15h1.1V12.3A1.26,1.26,0,0,1,79.5,11c.7,0,1.1.5,1.1,1.3V15h1.1V12.3A1.26,1.26,0,0,1,83,11c.7,0,1.1.5,1.1,1.3V15h1.1V12A1.89,1.89,0,0,0,83.2,10Zm6.9.8a1.81,1.81,0,0,0-1.5-.7,2.42,2.42,0,0,0-2.4,2.6,2.48,2.48,0,0,0,2.4,2.6,1.81,1.81,0,0,0,1.5-.7V15h1.1V10.1H90.1Zm-1.4,3.4a1.5,1.5,0,0,1-1.5-1.6,1.5,1.5,0,1,1,3,0A1.5,1.5,0,0,1,88.7,14.2Zm6.2-2.1-.5-.1c-.4-.1-.8-.2-.8-.5s.3-.6.9-.6a3,3,0,0,1,1.5.4l.5-.8a3.94,3.94,0,0,0-2-.5c-1.2,0-2,.6-2,1.6,0,.8.6,1.3,1.6,1.4l.5.1c.6.1.8.3.8.5,0,.4-.4.6-1.1.6a2.17,2.17,0,0,1-1.6-.5l-.5.8a3.77,3.77,0,0,0,2.1.6c1.4,0,2.2-.7,2.2-1.6S96,12.3,94.9,12.1Zm5.4,2.1a.82.82,0,0,1-.8-.9V11.2h1.9v-1H99.5V8.7H98.4v1.5h-1v1h1v2.1c0,1.3.6,1.9,1.7,1.9a2.46,2.46,0,0,0,1.5-.5l-.4-.9A1.8,1.8,0,0,1,100.3,14.2Zm4.4-4.2a2.37,2.37,0,0,0-2.4,2.6,2.39,2.39,0,0,0,2.5,2.6,3.06,3.06,0,0,0,2-.7l-.5-.8a2.39,2.39,0,0,1-1.4.5,1.32,1.32,0,0,1-1.4-1.2h3.6v-.4A2.48,2.48,0,0,0,104.7,10Zm-1.3,2.2a1.24,1.24,0,0,1,1.3-1.2q1,0,1.2,1.2Zm5.9-1.5v-.6h-1.1V15h1.1V12.3a1.18,1.18,0,0,1,1.2-1.3,1.88,1.88,0,0,1,.8.2l.3-1.1a2,2,0,0,0-.8-.1A1.58,1.58,0,0,0,109.3,10.7Zm5,.3a1.84,1.84,0,0,1,1.2.5l.7-.7a2.34,2.34,0,0,0-1.8-.8,2.52,2.52,0,0,0-2.6,2.6,2.47,2.47,0,0,0,2.6,2.6,2.34,2.34,0,0,0,1.8-.8l-.7-.7a1.66,1.66,0,0,1-1.2.5,1.43,1.43,0,0,1-1.4-1.6A1.43,1.43,0,0,1,114.3,11Zm6.4-.2a1.81,1.81,0,0,0-1.5-.7,2.42,2.42,0,0,0-2.4,2.6,2.48,2.48,0,0,0,2.4,2.6,1.81,1.81,0,0,0,1.5-.7V15h1.1V10.1h-1.1Zm-1.4,3.4a1.5,1.5,0,0,1-1.5-1.6,1.5,1.5,0,1,1,3,0A1.5,1.5,0,0,1,119.3,14.2Zm5.1-3.5v-.6h-1.1V15h1.1V12.3a1.18,1.18,0,0,1,1.2-1.3,1.88,1.88,0,0,1,.8.2l.3-1.1a2,2,0,0,0-.8-.1A1.58,1.58,0,0,0,124.4,10.7Zm6.4-3v3a1.81,1.81,0,0,0-1.5-.7,2.42,2.42,0,0,0-2.4,2.6,2.48,2.48,0,0,0,2.4,2.6,1.81,1.81,0,0,0,1.5-.7V15h1.1V7.7Zm-1.4,6.5a1.5,1.5,0,0,1-1.5-1.6,1.5,1.5,0,1,1,3,0A1.5,1.5,0,0,1,129.4,14.2ZM57.2,12.6A7.6,7.6,0,0,1,60,6.7a7.55,7.55,0,0,0-4.6-1.6A7.34,7.34,0,0,0,48,12.6a7.41,7.41,0,0,0,12,6A8,8,0,0,1,57.2,12.6Z" style="fill:#aab7c4"/><path d="M64.6,5A7.55,7.55,0,0,0,60,6.6a7.62,7.62,0,0,1,0,11.8A7.55,7.55,0,0,0,64.6,20a7.5,7.5,0,0,0,0-15Z" style="fill:#aab7c4;opacity:0.5;isolation:isolate"/><path d="M62.8,12.6A7.6,7.6,0,0,0,60,6.7c-1.7,1.4-3.8,3.5-3.8,5.9s2,4.5,3.8,5.9A7.6,7.6,0,0,0,62.8,12.6Z" style="fill:#aab7c4;opacity:0.75;isolation:isolate"/></svg>