<svg xmlns="http://www.w3.org/2000/svg" width="200" height="50" viewBox="47 3 86 19"><path d="M83.2 10a2 2 0 00-1.8.9 1.94 1.94 0 00-1.7-.9 1.66 1.66 0 00-1.5.7v-.6h-1.1V15h1.1v-2.7a1.26 1.26 0 011.3-1.3c.7 0 1.1.5 1.1 1.3V15h1.1v-2.7A1.26 1.26 0 0183 11c.7 0 1.1.5 1.1 1.3V15h1.1v-3a1.89 1.89 0 00-2-2zm6.9.8a1.81 1.81 0 00-1.5-.7 2.42 2.42 0 00-2.4 2.6 2.48 2.48 0 002.4 2.6 1.81 1.81 0 001.5-.7v.4h1.1v-4.9h-1.1zm-1.4 3.4a1.5 1.5 0 01-1.5-1.6 1.5 1.5 0 113 0 1.5 1.5 0 01-1.5 1.6zm6.2-2.1l-.5-.1c-.4-.1-.8-.2-.8-.5s.3-.6.9-.6a3 3 0 011.5.4l.5-.8a3.94 3.94 0 00-2-.5c-1.2 0-2 .6-2 1.6 0 .8.6 1.3 1.6 1.4l.5.1c.6.1.8.3.8.5 0 .4-.4.6-1.1.6a2.17 2.17 0 01-1.6-.5l-.5.8a3.77 3.77 0 002.1.6c1.4 0 2.2-.7 2.2-1.6s-.5-1.2-1.6-1.4zm5.4 2.1a.82.82 0 01-.8-.9v-2.1h1.9v-1h-1.9V8.7h-1.1v1.5h-1v1h1v2.1c0 1.3.6 1.9 1.7 1.9a2.46 2.46 0 001.5-.5l-.4-.9a1.8 1.8 0 01-.9.4zm4.4-4.2a2.37 2.37 0 00-2.4 2.6 2.39 2.39 0 002.5 2.6 3.06 3.06 0 002-.7l-.5-.8a2.39 2.39 0 01-1.4.5 1.32 1.32 0 01-1.4-1.2h3.6v-.4a2.48 2.48 0 00-2.4-2.6zm-1.3 2.2a1.24 1.24 0 011.3-1.2q1 0 1.2 1.2zm5.9-1.5v-.6h-1.1V15h1.1v-2.7a1.18 1.18 0 011.2-1.3 1.88 1.88 0 01.8.2l.3-1.1a2 2 0 00-.8-.1 1.58 1.58 0 00-1.5.7zm5 .3a1.84 1.84 0 011.2.5l.7-.7a2.34 2.34 0 00-1.8-.8 2.52 2.52 0 00-2.6 2.6 2.47 2.47 0 002.6 2.6 2.34 2.34 0 001.8-.8l-.7-.7a1.66 1.66 0 01-1.2.5 1.43 1.43 0 01-1.4-1.6 1.43 1.43 0 011.4-1.6zm6.4-.2a1.81 1.81 0 00-1.5-.7 2.42 2.42 0 00-2.4 2.6 2.48 2.48 0 002.4 2.6 1.81 1.81 0 001.5-.7v.4h1.1v-4.9h-1.1zm-1.4 3.4a1.5 1.5 0 01-1.5-1.6 1.5 1.5 0 113 0 1.5 1.5 0 01-1.5 1.6zm5.1-3.5v-.6h-1.1V15h1.1v-2.7a1.18 1.18 0 011.2-1.3 1.88 1.88 0 01.8.2l.3-1.1a2 2 0 00-.8-.1 1.58 1.58 0 00-1.5.7zm6.4-3v3a1.81 1.81 0 00-1.5-.7 2.42 2.42 0 00-2.4 2.6 2.48 2.48 0 002.4 2.6 1.81 1.81 0 001.5-.7v.5h1.1V7.7zm-1.4 6.5a1.5 1.5 0 01-1.5-1.6 1.5 1.5 0 113 0 1.5 1.5 0 01-1.5 1.6zm-72.2-1.6A7.6 7.6 0 0160 6.7a7.55 7.55 0 00-4.6-1.6 7.34 7.34 0 00-7.4 7.5 7.41 7.41 0 0012 6 8 8 0 01-2.8-6z" fill="#aab7c4"/><path d="M64.6 5A7.55 7.55 0 0060 6.6a7.62 7.62 0 010 11.8 7.55 7.55 0 004.6 1.6 7.5 7.5 0 000-15z" style="isolation:isolate" fill="#aab7c4" opacity=".5"/><path d="M62.8 12.6A7.6 7.6 0 0060 6.7c-1.7 1.4-3.8 3.5-3.8 5.9s2 4.5 3.8 5.9a7.6 7.6 0 002.8-5.9z" style="isolation:isolate" fill="#aab7c4" opacity=".75"/></svg>