<svg xmlns="http://www.w3.org/2000/svg" viewBox="0 0 45 25"><path d="M21.7 6l-2.8 13h-3.4l2.8-13zm14.1 8.4l1.8-4.9 1 4.9zm3.8 4.6h3.1L40 6h-2.9a1.5 1.5 0 00-1.4 1l-5 12h3.5l.7-1.9h4.3zm-8.8-4.3c0-3.4-4.7-3.6-4.7-5.1a1.32 1.32 0 011.4-1.1 6.28 6.28 0 013.3.6l.6-2.8a8.53 8.53 0 00-3.1-.6c-3.3 0-5.7 1.8-5.7 4.3 0 1.9 1.7 2.9 2.9 3.5s1.8 1 1.7 1.6c0 .9-1 1.3-2 1.3a8.53 8.53 0 01-3.5-.8l-.6 2.8a9.71 9.71 0 003.7.7c3.7.1 6-1.7 6-4.4M16.9 6l-5.4 13H7.9L5.2 8.6a1.33 1.33 0 00-.8-1.1 11.66 11.66 0 00-3.3-1.1l.1-.4h5.7a1.51 1.51 0 011.5 1.3l1.4 7.5L13.4 6z" fill="#aab7c4"/><path fill="none" d="M0 0h514.29v25H0z"/></svg>
