<svg xmlns="http://www.w3.org/2000/svg" width="84" height="50" viewBox="0 0 45 25"><title>card-brands</title><path d="M21.7,6,18.9,19H15.5L18.3,6Zm14.1,8.4,1.8-4.9,1,4.9ZM39.6,19h3.1L40,6H37.1a1.5,1.5,0,0,0-1.4,1l-5,12h3.5l.7-1.9h4.3Zm-8.8-4.3c0-3.4-4.7-3.6-4.7-5.1a1.32,1.32,0,0,1,1.4-1.1,6.28,6.28,0,0,1,3.3.6l.6-2.8a8.53,8.53,0,0,0-3.1-.6c-3.3,0-5.7,1.8-5.7,4.3,0,1.9,1.7,2.9,2.9,3.5s1.8,1,1.7,1.6c0,.9-1,1.3-2,1.3a8.53,8.53,0,0,1-3.5-.8l-.6,2.8a9.71,9.71,0,0,0,3.7.7c3.7.1,6-1.7,6-4.4M16.9,6,11.5,19H7.9L5.2,8.6a1.33,1.33,0,0,0-.8-1.1A11.66,11.66,0,0,0,1.1,6.4L1.2,6H6.9A1.51,1.51,0,0,1,8.4,7.3l1.4,7.5L13.4,6Z" style="fill:#aab7c4"/><rect width="514.29" height="25" style="fill:none"/></svg>