<svg xmlns="http://www.w3.org/2000/svg" viewBox="0 0 679.4 774.8"><path d="M679 173h-4V63a63 63 0 00-63-63H380a63 63 0 00-63 63v601a63 63 0 0063 64h232a63 63 0 0063-64V251h4z" fill="#e6e6e6"/><path d="M615 16h-31a22 22 0 01-21 31H430a22 22 0 01-20-31h-29a47 47 0 00-47 48v600a47 47 0 0047 47h234a47 47 0 0047-47V64a47 47 0 00-47-48z" fill="#fff"/><path data-name="Path 39" d="M643 488H363a5 5 0 01-5-5v-70a5 5 0 015-5h280a5 5 0 015 5v70a5 5 0 01-5 5zm-280-78a3 3 0 00-3 3v70a3 3 0 003 3h280a3 3 0 003-3v-70a3 3 0 00-3-3z" fill="#e6e6e6"/><circle data-name="Ellipse 5" cx="399.3" cy="448" r="21.7" fill="#e6e6e6"/><path data-name="Path 40" d="M450 433a4 4 0 000 8h170a4 4 0 101-8h-1z" fill="#e6e6e6"/><path data-name="Path 41" d="M450 455a4 4 0 000 7h170a4 4 0 101-7h-1z" fill="#e6e6e6"/><path data-name="Path 42" d="M643 604H363a5 5 0 01-5-5v-70a5 5 0 015-5h280a5 5 0 015 5v70a5 5 0 01-5 5zm-280-78a3 3 0 00-3 3v70a3 3 0 003 3h280a3 3 0 003-3v-70a3 3 0 00-3-3z" fill="#e6e6e6"/><circle data-name="Ellipse 6" cx="399.3" cy="563.9" r="21.7" fill="#e6e6e6"/><path data-name="Path 43" d="M450 549a4 4 0 000 8h170a4 4 0 101-8h-1z" fill="#e6e6e6"/><path data-name="Path 44" d="M450 571a4 4 0 000 7h170a4 4 0 101-7h-1z" fill="#e6e6e6"/><path fill="#6c63ff" d="M408 282l-1-2 37-37 25 25 49-49 16 16 44-44 1 1-45 45-16-16-49 49-25-24-36 36z"/><path data-name="Path 45" d="M497 344a98 98 0 01-98-98v-1c0-54 44-98 98-98a98 98 0 010 197zm0-195a97 97 0 00-96 96 96 96 0 1096-96z" fill="#e6e6e6"/><path d="M129 248s5 24-12 33c0 0 4 54 31 55s27-28 27-28l-4-16s-20-12-7-34z" fill="#feb8b8"/><circle cx="151.8" cy="211.2" r="49.5" fill="#2f2e41"/><path fill="#feb8b8" d="M100 360v59l87-3-6-58-81 2z"/><circle cx="152.3" cy="232.8" r="31.6" fill="#feb8b8"/><path d="M113 281s-18-3-24 0-14 2-21 33l-14 63s-2 19 14 17 15-30 15-30l10-24 19-21zM173 294s26 3 28 17-10 69-10 69l-18-18 10-34z" fill="#feb8b8"/><path d="M109 281v19l-15 32 7 82 87 2-6-63s11-15 5-28-11-32-11-32l-8-5s14 33-16 28-31-38-31-38z" fill="#e6e6e6"/><path d="M84 493l-15 83-17 121-7 14 6 13 18-8 8-33s25-30 21-69l45-109zM157 501l10 103s-2 29 4 54 11 70 11 70h21l-4-130 13-105z" fill="#feb8b8"/><path d="M142 407s-44-4-44 2v10s-9 14-8 26-49 102-23 115 56 23 61 19 23-88 23-88 0 91 9 92 80 10 80 0-55-186-55-186-31 11-43 10zM50 712s-4-8-8-2-20 18-20 18-39 10-13 26c0 0 23 0 33-7s19-5 19-5 14-1 16-7-6-27-6-27-7 9-21 4zM190 718s-12-3-12 0-18 22-4 31 17 6 18 14 29 15 33 10 7-15 2-19-22-31-22-36-15 0-15 0z" fill="#2f2e41"/><path fill="#fff" opacity=".1" style="isolation:isolate" d="M145 350h3v16h-3z"/><path d="M195 368s-20-27-18-8 12 29 14 29 11-2 4-21z" fill="#feb8b8"/><path d="M100 388l27-9 15-3-42 18z" opacity=".1" style="isolation:isolate"/><circle cx="106.5" cy="175.4" r="14.7" fill="#2f2e41"/><circle cx="197" cy="171.2" r="14.7" fill="#2f2e41"/><path d="M181 165a15 15 0 0113-15 15 15 0 100 30 15 15 0 01-13-15zM90 187a15 15 0 01-1-19 15 15 0 1021 21 15 15 0 01-20-2zM152 188c-18 0-32 8-32 18 0 5 3 9 8 12l6-4-2 7 2 1 9-11v13a53 53 0 009 1c17 0 31-8 31-19s-14-18-31-18z" fill="#2f2e41"/><path d="M182 171s-2 11 12 15M120 173s5 12-10 17M148 348a3 3 0 00-3 3v31a3 3 0 003 3h54a3 3 0 002-3v-31a3 3 0 00-2-3z" fill="#6c63ff"/><path d="M196 360h-42a1 1 0 110-1h42a1 1 0 110 1zM196 368h-42a1 1 0 110-2h42a1 1 0 110 2zM196 375h-42a1 1 0 010-2h42a1 1 0 010 2z" fill="#fff"/><path d="M67 370s8-6 25-4l33-8s30-18 42 4-43 15-43 15-37 30-59 14z" fill="#feb8b8"/></svg>
