<svg xmlns="http://www.w3.org/2000/svg" xmlns:xlink="http://www.w3.org/1999/xlink" viewBox="0 0 974 714.5"><defs><linearGradient id="a" x1="574.7" y1="713.3" x2="574.7" y2="358.2" gradientUnits="userSpaceOnUse"><stop offset="0" stop-color="gray" stop-opacity=".3"/><stop offset=".5" stop-color="gray" stop-opacity=".1"/><stop offset="1" stop-color="gray" stop-opacity=".1"/></linearGradient><linearGradient id="b" x1="2975.4" y1="757.8" x2="2975.4" y2="205.6" gradientTransform="matrix(-1 0 0 1 3906 0)" xlink:href="#a"/></defs><path d="M129 362c-13 4-25 13-28 26-4 15 5 30 6 46 4 50-68 85-57 135 4 19 20 34 36 46 26 19 55 36 86 40 49 8 99-14 146 0 38 11 66 42 104 54 28 9 59 5 89 2 16-2 33-4 46-14 24-18 25-53 41-78 25-39 79-47 125-40s90 27 136 25c10 0 20-2 29-6 10-6 17-17 24-27a429 429 0 0062-213c0-13 0-27-6-38-8-15-23-23-39-29-37-14-77-16-113-32-35-15-63-42-93-65a496 496 0 00-205-91c-17-3-35-6-53-2-20 4-37 17-52 30-41 36-74 80-112 119a636 636 0 01-85 73c-14 10-29 22-44 29s-28 5-43 10z" fill="#5e3b4d" opacity=".2"/><path d="M312 46s-39 51-11 111-48 156-48 156" fill="none" stroke="#535461" stroke-miterlimit="10" stroke-width="2"/><path d="M329 27c-3 13-18 21-18 21s-9-14-6-27 11-22 18-21 9 14 6 27z" fill="#8ed16f"/><ellipse cx="429.5" cy="116.7" rx="7.7" ry="2.9" transform="rotate(-77 315 142)" fill="#8ed16f"/><ellipse cx="429.5" cy="116.7" rx="7.7" ry="2.9" transform="rotate(-77 315 142)" opacity=".3"/><path d="M323 86c-13 4-28-4-28-4s6-15 19-20 25-3 27 4-6 15-18 20z" fill="#8ed16f"/><ellipse cx="431.1" cy="166.1" rx="7.7" ry="2.9" transform="rotate(-20 108 442)" fill="#8ed16f"/><ellipse cx="431.1" cy="166.1" rx="7.7" ry="2.9" transform="rotate(-20 108 442)" opacity=".3"/><path d="M320 132c-13 5-28-3-28-3s6-16 19-20 25-3 27 3-6 16-18 20z" fill="#8ed16f"/><ellipse cx="428.1" cy="212.9" rx="7.7" ry="2.9" transform="rotate(-20 106 490)" fill="#8ed16f"/><ellipse cx="428.1" cy="212.9" rx="7.7" ry="2.9" transform="rotate(-20 106 490)" opacity=".3"/><path d="M334 187c-12 5-27-3-27-3s6-16 19-20 25-3 27 3-6 16-19 20z" fill="#8ed16f"/><ellipse cx="443.1" cy="267.8" rx="7.7" ry="2.9" transform="rotate(-20 121 545)" fill="#8ed16f"/><ellipse cx="443.1" cy="267.8" rx="7.7" ry="2.9" transform="rotate(-20 121 545)" opacity=".3"/><path d="M325 237c-13 5-28-3-28-3s7-16 19-20 25-3 28 3-6 16-19 20z" fill="#8ed16f"/><ellipse cx="433.4" cy="317.9" rx="7.7" ry="2.9" transform="rotate(-20 110 593)" fill="#8ed16f"/><ellipse cx="433.4" cy="317.9" rx="7.7" ry="2.9" transform="rotate(-20 110 593)" opacity=".3"/><path d="M265 99c9 10 26 9 26 9s1-17-8-26-21-14-26-9-1 16 8 26z" fill="#8ed16f"/><ellipse cx="387.3" cy="182.6" rx="2.9" ry="7.7" transform="rotate(-44 216 276)" fill="#8ed16f"/><ellipse cx="387.3" cy="182.6" rx="2.9" ry="7.7" transform="rotate(-44 216 276)" opacity=".3"/><path d="M260 254c9 10 26 9 26 9s1-17-8-26-22-14-27-9-1 16 9 26z" fill="#8ed16f"/><ellipse cx="381.9" cy="337.6" rx="2.9" ry="7.7" transform="rotate(-44 211 431)" fill="#8ed16f"/><ellipse cx="381.9" cy="337.6" rx="2.9" ry="7.7" transform="rotate(-44 211 431)" opacity=".3"/><path d="M272 154c12 6 28-1 28-1s-5-16-17-22-24-6-27 1 4 16 16 22z" fill="#8ed16f"/><ellipse cx="390.8" cy="234.8" rx="2.9" ry="7.7" transform="rotate(-63 259 280)" fill="#8ed16f"/><ellipse cx="390.8" cy="234.8" rx="2.9" ry="7.7" transform="rotate(-63 259 280)" opacity=".3"/><path d="M277 208c12 6 28 0 28 0s-5-16-17-22-24-6-27 0 4 16 16 22z" fill="#8ed16f"/><ellipse cx="395.9" cy="289.4" rx="2.9" ry="7.7" transform="rotate(-63 264 334)" fill="#8ed16f"/><ellipse cx="395.9" cy="289.4" rx="2.9" ry="7.7" transform="rotate(-63 264 334)" opacity=".3"/><path d="M126 156s70 71 30 176 69 279 69 279l-4-1A206 206 0 0185 296c30-46 55-100 41-140z" fill="#8ed16f"/><path d="M0 442s81-13 88 59 155 83 155 83l-3 1C118 665 2 636 19 530c7-39 6-79-19-88z" fill="#8ed16f"/><path d="M0 442s81-13 88 59 155 83 155 83l-3 1C118 665 2 636 19 530c7-39 6-79-19-88z" fill="#fff" opacity=".3"/><ellipse cx="105.3" cy="383.3" rx="22.1" ry="57.8" fill="#8ed16f"/><ellipse cx="105.3" cy="383.3" rx="22.1" ry="57.8" opacity=".3"/><ellipse cx="192.8" cy="662.4" rx="14.9" ry="33.2" transform="rotate(-45 24 752)" fill="#8ed16f"/><ellipse cx="192.8" cy="662.4" rx="14.9" ry="33.2" transform="rotate(-45 24 752)" opacity=".3"/><path d="M837 358H313a24 24 0 00-24 24v307a24 24 0 0024 24h524a24 24 0 0024-24V382a24 24 0 00-24-24z" transform="translate(-113 -93)" fill="url(#a)"/><rect x="182.4" y="269.6" width="558.6" height="346.8" rx="24.8" ry="24.8" fill="#5e3b4d"/><path fill="#5e3b4d" d="M182 330h559v64H182z"/><path opacity=".3" d="M182 330h559v64H182z"/><path fill="#d6d6e3" d="M235 441h453v31H235z"/><circle cx="272.9" cy="549" r="44.3" fill="#5e3b4d"/><circle cx="272.9" cy="549" r="44.3" opacity=".3"/><path d="M822 277a10 10 0 005 5c9 6 29 5 31 5l2 2c4 8 9 29 9 34a106 106 0 0016 44c9 9 19-1 19-1l1-5a252 252 0 00-2 11 158 158 0 00-2 24 88 88 0 001 9v3a85 85 0 010 11c0 21-5 48-5 48v4l-4 40a80 80 0 001 15l10 69v32a57 57 0 002 14c3 12 0 54-1 74l-1 11a6 6 0 011 0c-3 6-10 16-16 18a17 17 0 00-8 5 6 6 0 00-2 4 3 3 0 010-1c0 2 1 4 5 5a35 35 0 008 1c15 0 40-5 43-10v-16h1l2 1 4-17c6-4 1-82 0-100 0-16 10-81 11-93v-2a7 7 0 011 1 13 13 0 012 2 30 30 0 012 5c10 24 14 95 14 101v66a69 69 0 003 20 83 83 0 012 10l1 4v5c0 1 0 0 0 0l1 4a9 9 0 012-1v9c10 8 26 10 39 10l17-2c4-1 2-5-1-8l-8-4c-3 0-14-12-20-19h1l1-1V613s1-44 6-87a153 153 0 00-8-64v-1l2 1h2v-1l-2-42c0-27 2-59 12-78 5-10 7-19 7-25a27 27 0 00-5-17 13 13 0 00-6-4 14 14 0 00-5-1h-20a13 13 0 01-7-2l-8-4c-2-6-3-13-2-20v-1l1-1 1-2a11 11 0 010 2l-1 1c4-1 9-2 12-5a21 21 0 002-4 12 12 0 012-3l2-2v-1c3-3 3-7 3-11 0-9-1-20-7-27-5-6-14-8-22-8l-24 1c-5 0-12 0-15 4-1 2-1 5-3 7l-2 4a4 4 0 000 2c2 4 6 6 11 7a26 26 0 00-2 3 26 26 0 00-4 14v2a26 26 0 008 17v2l2 2v4l-10-8-16-15s-39-28-41-15a10 10 0 002 7c7 11 32 20 32 20s15 16 24 33h-1c-8 4-21 3-21 3-15 2-16 18-16 25v1c0 1 0 0 0 0l-20-46a10 10 0 00-7-6c-14-2-46-7-44 3zm83 449a9 9 0 011 0h-1z" transform="translate(-113 -93)" fill="url(#b)"/><path d="M890 624s19 23 23 23 14 9 9 12-39 4-55-8v-19zM796 625s-11 20-19 22-14 11-4 14 46-3 49-9v-25z" fill="#aca9c9"/><path d="M782 433l10 67v32a56 56 0 001 14c3 12 1 54-1 73v11c6-3 32 6 32 6l3-9 2-7c6-4 1-81 0-99a657 657 0 0110-90l1-3a10 10 0 012 3 30 30 0 012 4c10 24 14 94 14 100v66a69 69 0 003 19 100 100 0 013 13l1 10c0-3 30-16 30-16V518s1-43 6-86a153 153 0 00-6-57 142 142 0 00-6-18h-98c-2 1-3 4-4 9l-2 12-4 39a80 80 0 001 16z" fill="#618fd8"/><g opacity=".1"><path d="M893 627V518s2-43 6-85-12-75-12-75h2s16 32 12 75-6 85-6 85v109s-30 13-30 16v-2l28-14zM794 630a7 7 0 00-2 0 17 17 0 012 0zM827 620c6-4 1-81 0-99s11-93 11-93a8 8 0 012 2c-2 11-12 75-11 91 1 18 6 95 0 99l-5 16h-1z"/></g><path d="M802 239l-10 36s-11 10-20 0-13-37-14-43-8-35-11-35-32 2-35-10c-3-10 29-5 42-3a10 10 0 017 6l20 47s11-13 21 2zM866 157s-12 35 3 47-56 16-56 16l10-9s7-28 2-51z" fill="#f7c4a7"/><path d="M851 204s12-3 12-6l12 6h28s20 12 3 46-9 119-9 119-62-11-112 6c0 0 7-38 5-59s4-52 4-52l5-18s-1-17-18-8c0 0-3-25 15-28 0 0 21 3 28-8 0 0 13 9 27 2z" opacity=".1"/><path d="M851 203s12-3 12-6l9 5a13 13 0 006 1h20a13 13 0 0110 6c5 6 9 19-2 40-17 35-9 119-9 119s-62-11-112 6c0 0 7-38 5-59s4-52 4-52l5-18s-1-17-18-8c0 0-3-24 15-28a5 5 0 011 0c4 1 21 2 27-7 0 0 13 8 27 1z" fill="#e14b5a"/><path d="M899 247s-15 10-40 0c0 0-27-10-36-30s44 4 44 4 11 0 14-3 27 18 18 29z" opacity=".1"/><path d="M899 245s-15 10-40 0c0 0-27-10-36-30s-29-41-29-41-35-13-33-27 41 15 41 15l15 15 50 42s11 0 14-3 27 19 18 29z" fill="#f7c4a7"/><path d="M824 162l42-3a94 94 0 00-5 19 26 26 0 01-36 1 47 47 0 00-1-17z" opacity=".1"/><circle cx="842.9" cy="158.3" r="26.3" fill="#f7c4a7"/><path d="M857 164c-1-3 2-6 1-9l-6-5-1-6c0-3-3-5-6-5l-8 2-14 2c-5 0-9-3-11-7a4 4 0 010-2l2-4c2-2 2-5 3-7 3-4 10-4 15-4l23-2c8 0 16 3 21 9 7 7 7 17 7 27 0 3 0 8-3 11l-2 2c-2 2-2 5-3 7-3 3-8 4-12 5v-10c-1-4-2-4-6-4z" opacity=".1"/><path d="M857 163c-1-2 2-6 1-9l-6-5-1-6c0-3-3-5-6-5l-8 2-14 2c-5 0-9-3-11-7a4 4 0 010-2l2-4c2-2 2-5 3-7 3-4 10-4 15-4l23-2c8 0 16 3 21 9 7 7 7 17 7 27 0 3 0 8-3 11l-2 2c-2 2-2 5-3 7-3 3-8 4-12 5v-10c-1-4-2-4-6-4z" fill="#281c1c"/><path d="M899 248s-13-33-23-34h19l10 17z" opacity=".1"/><path d="M900 248s-13-33-23-34h19l10 17z" fill="#e14b5a"/><path d="M864 633l1 10c0-3 30-16 30-16v-8a13 13 0 00-2 0c-6 1-12 4-16 7a146 146 0 01-13 7z" fill="#618fd8"/><path d="M864 633l1 10c0-3 30-16 30-16v-8a13 13 0 00-2 0c-6 1-12 4-16 7a146 146 0 01-13 7z" opacity=".3"/><path d="M792 630c6-3 32 6 32 6l3-9-14-3a45 45 0 01-6-3 41 41 0 00-4-2h-11v11z" fill="#618fd8"/><path d="M792 630c6-3 32 6 32 6l3-9-14-3a45 45 0 01-6-3 41 41 0 00-4-2h-11v11z" opacity=".3"/><path d="M921 657a3 3 0 002-2 3 3 0 01-2 4c-5 2-38 4-55-8v-1c17 12 50 10 55 7zM773 659c10 2 46-3 49-9v2c-3 6-39 11-49 8-4-1-6-3-5-5 0 2 1 3 5 4z" fill="#fff" opacity=".4"/><path d="M831 311s-11-4-13 0-28 11-28 11" opacity=".1"/><path fill="#8ed16f" d="M763 179h-51v-1h51zM763 180h-51v-1h51z"/><path opacity=".1" d="M763 180h-51v-1h51z"/><path fill="#8ed16f" d="M763 182h-51v-2h51zM763 183h-51v-1h51z"/><path opacity=".1" d="M763 183h-51v-1h51z"/><path fill="#8ed16f" d="M763 184h-51v-1h51zM763 185h-51v-1h51z"/><path opacity=".1" d="M763 185h-51v-1h51z"/><path fill="#8ed16f" d="M763 186h-51v-1h51zM763 187h-51v-1h51z"/><path opacity=".1" d="M763 187h-51v-1h51z"/><path fill="#8ed16f" d="M763 171h-51v-1h51zM787 178l-39-33 1-1 39 33zM752 161l-40-33 1-1 39 33z"/><path fill="#8ed16f" d="M763 172h-51v-1h51z"/><path opacity=".1" d="M763 172h-51v-1h51z"/><path fill="#8ed16f" d="M763 173h-51v-1h51zM763 174h-51v-1h51z"/><path opacity=".1" d="M763 174h-51v-1h51z"/><path fill="#8ed16f" d="M763 175h-51v-1h51zM763 176h-51v-1h51z"/><path opacity=".1" d="M763 176h-51v-1h51z"/><path fill="#8ed16f" d="M763 177h-51v-1h51zM763 178h-51v-1h51z"/><path opacity=".1" d="M763 178h-51v-1h51z"/><path fill="#8ed16f" d="M724 224l-19-4 7-35 18 3z"/><ellipse cx="831.1" cy="297" rx="7.7" ry="3.8" transform="rotate(-79 719 319)" fill="#8ed16f"/><ellipse cx="831.1" cy="297" rx="7.7" ry="3.8" transform="rotate(-79 719 319)" opacity=".1"/><path fill="#8ed16f" d="M727 299l-18-3 6-36 19 3z"/><ellipse cx="834.3" cy="372.3" rx="7.7" ry="3.8" transform="rotate(-79 722 394)" fill="#8ed16f"/><ellipse cx="834.3" cy="372.3" rx="7.7" ry="3.8" transform="rotate(-79 722 394)" opacity=".1"/><path fill="#8ed16f" d="M633 127l9-17 32 18-9 16z"/><ellipse cx="766.7" cy="220.2" rx="3.8" ry="7.7" transform="rotate(-61 634 267)" fill="#8ed16f"/><ellipse cx="766.7" cy="220.2" rx="3.8" ry="7.7" transform="rotate(-61 634 267)" opacity=".1"/><path fill="#8ed16f" d="M563 450l9-16 32 17-9 17z"/><ellipse cx="696.5" cy="543.7" rx="3.8" ry="7.7" transform="rotate(-62 562 592)" fill="#8ed16f"/><ellipse cx="696.5" cy="543.7" rx="3.8" ry="7.7" transform="rotate(-62 562 592)" opacity=".1"/><path fill="#8ed16f" d="M520 183l9-16 32 17-9 17z"/><ellipse cx="653.6" cy="276.7" rx="3.8" ry="7.7" transform="rotate(-62 519 325)" fill="#8ed16f"/><ellipse cx="653.6" cy="276.7" rx="3.8" ry="7.7" transform="rotate(-62 519 325)" opacity=".1"/><path fill="#8ed16f" d="M574 127l9-17 32 18-9 16z"/><ellipse cx="707.4" cy="220.2" rx="3.8" ry="7.7" transform="rotate(-62 573 269)" fill="#8ed16f"/><ellipse cx="707.4" cy="220.2" rx="3.8" ry="7.7" transform="rotate(-62 573 269)" opacity=".1"/><path fill="#8ed16f" d="M618 179l19-2 4 36-19 2z"/><ellipse cx="742.2" cy="288.9" rx="3.8" ry="7.7" transform="rotate(-6 -164 1279)" fill="#8ed16f"/><ellipse cx="742.2" cy="288.9" rx="3.8" ry="7.7" transform="rotate(-6 -164 1279)" opacity=".1"/><path fill="#8ed16f" d="M745 377l19-2 4 36-19 2z"/><ellipse cx="869.3" cy="486.6" rx="3.8" ry="7.7" transform="rotate(-6 -37 1477)" fill="#8ed16f"/><ellipse cx="869.3" cy="486.6" rx="3.8" ry="7.7" transform="rotate(-6 -37 1477)" opacity=".1"/><path fill="#8ed16f" d="M555 270l9-16 32 17-9 16z"/><ellipse cx="688.6" cy="363.6" rx="3.8" ry="7.7" transform="rotate(-62 554 412)" fill="#8ed16f"/><ellipse cx="688.6" cy="363.6" rx="3.8" ry="7.7" transform="rotate(-62 554 412)" opacity=".1"/><path fill="#8ed16f" d="M475 247l8-16 32 17-8 16z"/><ellipse cx="608" cy="340.6" rx="3.8" ry="7.7" transform="rotate(-61 476 388)" fill="#8ed16f"/><ellipse cx="608" cy="340.6" rx="3.8" ry="7.7" transform="rotate(-61 476 388)" opacity=".1"/><path fill="#8ed16f" d="M449 635l9-16 32 17-9 16z"/><ellipse cx="582.1" cy="728.3" rx="3.8" ry="7.7" transform="rotate(-62 448 777)" fill="#8ed16f"/><ellipse cx="582.1" cy="728.3" rx="3.8" ry="7.7" transform="rotate(-62 448 777)" opacity=".1"/><path fill="#8ed16f" d="M431 643l3-18 36 6-3 19z"/><path opacity=".1" d="M431 643l3-18 36 6-3 19z"/><ellipse cx="563.5" cy="730.2" rx="3.8" ry="7.7" transform="rotate(-79 451 752)" fill="#8ed16f"/><ellipse cx="563.5" cy="730.2" rx="3.8" ry="7.7" transform="rotate(-79 451 752)" opacity=".1"/><path fill="#8ed16f" d="M434 654l4-18 35 6-3 19z"/><ellipse cx="566.9" cy="741.2" rx="3.8" ry="7.7" transform="rotate(-79 455 763)" fill="#8ed16f"/><ellipse cx="566.9" cy="741.2" rx="3.8" ry="7.7" transform="rotate(-79 455 763)" opacity=".1"/><path fill="#8ed16f" d="M487 682l8-16 32 17-9 16z"/><ellipse cx="619.8" cy="775.4" rx="3.8" ry="7.7" transform="rotate(-62 486 824)" fill="#8ed16f"/><ellipse cx="619.8" cy="775.4" rx="3.8" ry="7.7" transform="rotate(-62 486 824)" opacity=".1"/><path fill="#8ed16f" d="M469 690l3-18 36 7-4 18z"/><path opacity=".1" d="M469 690l3-18 36 7-4 18z"/><ellipse cx="601.3" cy="777.3" rx="3.8" ry="7.7" transform="rotate(-79 489 799)" fill="#8ed16f"/><ellipse cx="601.3" cy="777.3" rx="3.8" ry="7.7" transform="rotate(-79 489 799)" opacity=".1"/><path fill="#8ed16f" d="M472 701l3-18 36 7-3 18z"/><ellipse cx="604.6" cy="788.3" rx="3.8" ry="7.7" transform="rotate(-79 492 810)" fill="#8ed16f"/><ellipse cx="604.6" cy="788.3" rx="3.8" ry="7.7" transform="rotate(-79 492 810)" opacity=".1"/><path fill="#8ed16f" d="M543 652l9-17 32 18-9 16z"/><ellipse cx="676.4" cy="745" rx="3.8" ry="7.7" transform="rotate(-62 542 793)" fill="#8ed16f"/><ellipse cx="676.4" cy="745" rx="3.8" ry="7.7" transform="rotate(-62 542 793)" opacity=".1"/><path fill="#8ed16f" d="M525 660l4-18 35 6-3 19z"/><path opacity=".1" d="M525 660l4-18 35 6-3 19z"/><ellipse cx="657.8" cy="747" rx="3.8" ry="7.7" transform="rotate(-79 546 769)" fill="#8ed16f"/><ellipse cx="657.8" cy="747" rx="3.8" ry="7.7" transform="rotate(-79 546 769)" opacity=".1"/><path fill="#8ed16f" d="M529 671l3-18 36 6-4 18z"/><ellipse cx="661.1" cy="758" rx="3.8" ry="7.7" transform="rotate(-79 549 780)" fill="#8ed16f"/><ellipse cx="661.1" cy="758" rx="3.8" ry="7.7" transform="rotate(-79 549 780)" opacity=".1"/></svg>