<svg xmlns="http://www.w3.org/2000/svg" viewBox="0 0 890.30174 489.29978"><path fill="#e6e6e6" d="M183 0h704v451H183z"/><path fill="#fff" d="M245 61h254v261H245zM594 66h254v317H594z"/><ellipse cx="844.8" cy="477.3" rx="45.5" ry="6.5" fill="#e6e6e6"/><ellipse cx="389.9" cy="477.4" rx="45.5" ry="6.5" fill="#e6e6e6"/><ellipse cx="104.4" cy="470.9" rx="104.4" ry="5" fill="#e6e6e6"/><path fill="#5e3b4d" d="M183 0h703v30H183z"/><circle cx="204.9" cy="15.3" r="5.5" fill="#e6e6e6"/><circle cx="225.9" cy="15.3" r="5.5" fill="#e6e6e6"/><circle cx="246.9" cy="15.3" r="5.5" fill="#e6e6e6"/><path d="M792 151h-1v-42a24 24 0 00-25-25h-89a24 24 0 00-24 25v231a24 24 0 0024 24h89a24 24 0 0025-24V181h1z" fill="#3f3d56"/><path d="M766 91h-11a9 9 0 01-8 12h-52a9 9 0 01-8-12h-10a18 18 0 00-19 18v231a18 18 0 0019 18h89a18 18 0 0018-18V109a18 18 0 00-18-18z" fill="#fff"/><path fill="#e6e6e6" d="M284 226h177v8H284z"/><path fill="#5e3b4d" d="M284 252h177v8H284z"/><path fill="#e6e6e6" d="M284 278h177v8H284zM671 243h103v8H671zM671 268h103v8H671zM671 293h103v8H671z"/><path fill="#3f3d56" d="M785 401v17h-18v-17z"/><path fill="#5e3b4d" d="M757 401v17h-17v-17z"/><path fill="#3f3d56" d="M729 401v17h-17v-17zM702 401v17h-18v-17zM674 401v17h-17v-17z"/><path fill="#5e3b4d" d="M693 139h57v57h-57z"/><path d="M350 276l-1 1-2-11s-3-12 3-12 4 12 4 12v8zM447 274l1 2 2-12s3-11-3-11-5 11-5 11v9z" fill="#a0616a"/><path fill="#2f2e41" d="M382 359l-9 55 5 53 10-4-1-40 10-32 2 38-4 39 13 1 10-80-1-28-35-2z"/><path d="M382 460l-5 9v18a2 2 0 002 2c2 0 7 1 8-2 3-4 1-12 1-12s3-6 2-10-3-5-3-5zM404 468l2 2s2 2 1 4a29 29 0 00-3 4s-8 2-8-1v-10z" fill="#2f2e41"/><circle cx="401.8" cy="288.8" r="9.8" fill="#a0616a"/><path fill="#a0616a" d="M395 292l-1 14 14 1-1-14-12-1z"/><path d="M410 307l-2-5s-10-4-13 0l-2 4-12-3-6 15 6 42s15 20 36 1l6-40-4-15z" fill="#575a89"/><path fill="#575a89" d="M417 309l2-3 14-9 9-27 7 3-7 32-22 20-3-16zM383 305l-2-2-15-9-11-23-9 3 10 28 23 19 4-16z"/><path d="M409 274l2-1-3-1v-1s-12-4-13 4a16 16 0 000 19v2l12 2 2-5s8-14 0-19z" fill="#2f2e41"/><path d="M115 360l-3 1s-11 5-8 8 13-3 13-3l1-2z" fill="#ffb8b8"/><path fill="#2f2e41" d="M199 359l-9 59-14 42-7-4 7-56-19-16 1-24 41-1z"/><path d="M168 458s8-4 9 2l-1 6s3 11-7 9-3-10-3-10zM163 378l-6 6s0 32 4 37l33 30c1 1 5-10 5-10l-26-30 2-18z" fill="#2f2e41"/><path d="M196 440s8-2 8 4a115 115 0 001 12s1 17-5 14-8-19-8-19a7 7 0 013-3l1-8z" fill="#2f2e41"/><path fill="#ffb8b8" d="M172 288l2 18-4 7-11-10-1-14 14-1z"/><circle cx="163.6" cy="282.7" r="11.4" fill="#ffb8b8"/><path fill="#d0cde1" d="M168 306l5-14 9 9 15 61-11 7-6-8-1 10-23-5-2-63 5-7 9 10z"/><path fill="#2f2e41" d="M162 373l-3-77-6 5-12 7 8 28 2 28 11 9z"/><path fill="#2f2e41" d="M145 309l-4-1-9 28-19 24 7 8 22-22 8-17-5-20z"/><path d="M197 360l-1 3s-3 13 1 12 6-12 6-12l-1-3z" fill="#ffb8b8"/><path fill="#2f2e41" d="M172 291l24 9-3 29 6 31-6 6-21-71v-4zM164 264l4-2v2l2-2v3s8 6 7 14l-2 7s-2-13-11-11-9 2-11 9l-1 2s-9-21 12-22z"/><path fill="#2f2e41" d="M193 300h3l7 34v29l-8-2-6-44 4-17z"/><path fill="#5e3b4d" d="M4 371h140v97H4z"/><path d="M74 390a30 30 0 1029 30 30 30 0 00-29-30zm0 9a9 9 0 11-9 9 9 9 0 019-9zm0 43a22 22 0 01-18-10c0-6 12-9 18-9s17 3 18 9a22 22 0 01-18 10z" fill="#fff"/><path fill="#e6e6e6" d="M284 91h176v101H284z"/><path d="M808 291l1-5s5-11 1-11-7 9-7 9l1 11z" fill="#ffb8b8"/><path fill="#575a89" d="M847 321l-34-7-4-24-10-1 1 32 29 15 18-15z"/><path opacity=".2" d="M847 321l-34-7-4-24-10-1 1 32 29 15 18-15z"/><path fill="#5e3b4d" d="M858 285H755v-8h103z"/><path d="M802 289v-5s3-11-1-11-5 10-5 10l3 11z" fill="#ffb8b8"/><path d="M845 305l5-1a12 12 0 0012-15 16 16 0 00-16-15 16 16 0 00-15 15 12 12 0 0014 16zM818 381l4 42 7 40h11l-1-40-6-48-15 6z" fill="#2f2e41"/><path d="M830 461l-7 4s-12 2-10 5 29 2 29 0-1-9-3-9zM852 378s0 6-6 15l1 28 27 35-9 8-34-38-8-45 10-11z" fill="#2f2e41"/><path d="M872 456s9 2 8 5-6 22-15 19c0 0-5 0-4-3a55 55 0 014-5v-10z" fill="#2f2e41"/><circle cx="840.4" cy="294" r="11.4" fill="#ffb8b8"/><path fill="#ffb8b8" d="M846 302v13h-12l1-13h11z"/><path d="M831 310l3-1 12 1s6 6 5 8l-5 38 7 27-24 2-12-2 2-48s-5-13 2-17a30 30 0 0010-8z" fill="#575a89"/><path fill="#575a89" d="M844 313l-34-2-8-23-9 1 5 31 31 11 15-18z"/><circle cx="862.4" cy="278.3" r="7.4" fill="#2f2e41"/><path d="M856 274a7 7 0 018-7 7 7 0 10-4 14 7 7 0 01-4-7zM849 278l-10-1-7 4a12 12 0 00-6 12l8-2 2-4 2 3 8 14 8-4 6-9z" fill="#2f2e41"/><path fill="#fff" d="M284 92l1-2 176 101-1 2z"/><path fill="#fff" d="M284 191L460 90l1 2-176 101zM692 140l2-2 57 57-2 2z"/><path fill="#fff" d="M692 195l57-57 2 2-57 57z"/></svg>
