<svg width="96" height="16" xmlns="http://www.w3.org/2000/svg">
  <g fill="#FFAF66" fill-rule="evenodd">
    <path d="M10 6L8 .256 6 6H0l4.89 3.828-1.922 5.916L8 12.088l5.032 3.656-1.922-5.916L16 6zM30 5.744L28 0l-2 5.744h-6l4.89 3.828-1.922 5.916L28 11.832l5.032 3.656-1.922-5.916L36 5.744zM50 5.744L48 0l-2 5.744h-6l4.89 3.828-1.922 5.916L48 11.832l5.032 3.656-1.922-5.916L56 5.744zM70 5.744L68 0l-2 5.744h-6l4.89 3.828-1.922 5.916L68 11.832l5.032 3.656-1.922-5.916L76 5.744zM90 5.744L88 0l-2 5.744h-6l4.89 3.828-1.922 5.916L88 11.832l5.032 3.656-1.922-5.916L96 5.744z"/>
  </g>
</svg>
