<svg width="155" height="150" xmlns="http://www.w3.org/2000/svg">
  <path d="M125.021 116.892c-3.91.4-3.578-3.818-6.752-5.087-.762 3.623 3.566 5.749 5.604 9.563-.005 1.363-2.583-2.317-3.578-3.118 5.544 7.779 10.346 13.841 12.67 22.009-5.008-2.103-6.346-6.18-10.553-7.644-.892-.531.187 1.69-.875 1.198-13.11-11.482-26.44-21.81-37.365-36-5.626-7.295-12.28-16.66-19.876-24.081-.676-.251-2.028.946-3.292.702-5.786-6.768-11.614-11.624-19.272-18.675-9.226-8.485-22.233-12.038-31.28-19.392C2.587 29.95-1.981 24.27.84 13.326c.39-1.07.94-.899 1.661-1.053L.865 10.369c3.178 4.066 3.84-5.521 7.061-8.215 6.451-5.405 12.763.737 17.744 3.458 2.003 1.089 2.428 1.458 4.367 3.556 3.047 3.298 8.538 4.889 12.951 7.479 6.952 4.085 13.718 9.716 19.735 15.825 21.874 22.268 41.941 49.524 55.387 73.436-1.199.359-.35.417-.883 1.193 3.025 2.803 5.101 6.215 7.794 9.791m2.105 8.657c-2.605-.15-4.1-5.584-1.356-2.152.599.747.618 1.88 1.356 2.152M155 150c-2.026-.036-2.568-2.66-4.567-4.08 2.414-.775 3.368 2.92 4.567 4.08m-4.052-4.95c-1.2.359-1.718-1.548-2.65-2.074 1.939-1.376 1.75 1.592 2.65 2.073m-4.049-4.95c-2.978-2.926-.577 1.074 1.53 1.605-.503-.5-1.007-1.093-1.53-1.605" fill="#5743DF" fill-rule="evenodd"/>
</svg>
