<svg width="48" height="48" xmlns="http://www.w3.org/2000/svg">
  <g fill="none" fill-rule="evenodd">
    <rect fill="#E5E1FF" width="48" height="48" rx="2"/>
    <path d="M27 14H13a.945.945 0 0 0-1 1v3a.945.945 0 0 0 1 1h14a.945.945 0 0 0 1-1v-3a.945.945 0 0 0-1-1z" fill="#7E6EE6"/>
    <path d="M27 22H13a.945.945 0 0 0-1 1v3a.945.945 0 0 0 1 1h14a.945.945 0 0 0 1-1v-3a.945.945 0 0 0-1-1z" fill="#A59AEE"/>
    <path d="M27 30H13a.945.945 0 0 0-1 1v3a.945.945 0 0 0 1 1h14a.945.945 0 0 0 1-1v-3a.945.945 0 0 0-1-1zM35 14h-3a.945.945 0 0 0-1 1v19a.945.945 0 0 0 1 1h3a.945.945 0 0 0 1-1V15a.945.945 0 0 0-1-1z" fill="#7E6EE6"/>
  </g>
</svg>
