<svg width="420" height="315" xmlns="http://www.w3.org/2000/svg" xmlns:xlink="http://www.w3.org/1999/xlink">
  <defs>
    <linearGradient x1="100%" y1="0%" x2="0%" y2="100%" id="a">
      <stop stop-color="#E4E8EE" offset="0%"/>
      <stop stop-color="#B4C2D7" offset="100%"/>
    </linearGradient>
    <linearGradient x1="100%" y1="0%" x2="0%" y2="100%" id="c">
      <stop stop-color="#A59AEE" offset="0%"/>
      <stop stop-color="#7E6EE6" offset="100%"/>
    </linearGradient>
    <path id="b" d="M0 0h186v227H0z"/>
    <path id="e" d="M0 0h186v227H0z"/>
  </defs>
  <g fill="none" fill-rule="evenodd">
    <path d="M0 0h420v315H0z" fill="#FFF"/>
    <path d="M319.055 166.679c-.067-.23-.182-.398-.393-.459-2.031-.63-4.004-1.287-6.822-1.73-.635-.104-2.888.884-3.513.664-1.475-.509-.559-2.047-3.876-1.2.62-1.214-.606-1.326-2.178-1.336-1.578.006-3.499.113-4.185-.377-.43-.329 2.352-2.212-2.05-.592-1.51 1.84-2.508 3.557-3.13 5.152-.582 1.48-2.594 3.875-2.844 5.397-.337 2.077.755 3.342 1.056 5.18.309 1.807 1.754 2.91 2.806 4.226 1.356 1.73 3.362 4.244 5.953 4.81 1.507.317 1.643 2.284 8.669-4.652 6.047-6.739 11.045-12.767 11.522-13.946.432-1.096-.854-.602-1.015-1.137" fill="#E5E1FF"/>
    <path fill="url(#a)" d="M0 0h388v40H0z" transform="translate(16 16)"/>
    <g transform="translate(16 72)">
      <mask id="d" fill="#fff">
        <use xlink:href="#b"/>
      </mask>
      <use fill="url(#c)" xlink:href="#b"/>
      <path d="M43.492 58.5c-.377.203-.454.308-.879.52-2.682.922-1.76.507-1.708.41.096-.187-1.203.13-.84-.145-.469.164-1.094.456-1.403.531-.403-.172-1.4.056-1.198-.338-1.086.506.043.088-.64.42-.24-.078-1.017.073-1.56.168-.202.037.275-.266.153-.274-.77-.045-1.222-.22-1.839-.291-.536-.053-.569-.421-1.33-.237.869-.83.305-.62-.042-.5.528-.91-.362-.708-.018-1.644.19-.572.222-1.037.115-1.35-.05-.174.443-.99.798-1.709.185-.378.055-.37.111-.59.066-.277-.237-.04.687-1.435-.303.013.339-1.169.036-1.286 1.241-1.908 1.336-2.297 2.68-4.426.97-1.388 1.053-1.316 1.743-2.223.15.06.751-.51 1.27-.966.321-.282-.09.43-.079.59.024.314.48.125.66.22.295.151 1.193-.492 1.494-.393.093 1.007.195 1.912 1.237 1.936.033-.057.345-.372.335-.387.35-.347-.427.52-.662.783.273 1.205.645 2.269 1.274 3.114 1.374 1.873 2.573 3.306 2.926 5.577.04.296.712.34-.124 1.002-.593.466-.837.805-.93 1.075-.131.382-.01.666-.863 1.315.12.029-1.37.502-1.404.533zm18.424 37.366c.173.382.881.407.308 1.296-.41.63-.493 1.1-.45 1.473.062.534.342.89-.165 1.882.144.03-1.13.833-1.147.88-.267.329-.277.495-.585.847-2.225 1.584-1.544.864-1.56.7-.038-.308-1.262.175-1.079-.292-.407.25-.885.72-1.185.822-.637-.38-1.677-.182-1.805-.928-.91.706.14.192-.41.674-.392-.238-1.265-.206-1.933-.261-.248-.023.088-.475-.086-.554-1.139-.51-2.03-1.25-3.09-1.95-.94-.622-1.384-1.547-2.519-1.969.637-1.065-.101-1.15-.612-1.316.067-1.5-1.349-2.209-1.469-3.837-.07-.988-.29-1.87-.641-2.637-.189-.41.27-1.304.595-2.11.17-.424-.04-.565-.014-.868.03-.377-.4-.379.724-1.499-.466-.332.32-1.385-.121-1.872 1.64-1.362 1.766-1.782 3.597-3.264 1.306-.895 1.395-.754 2.306-1.31.165.165.924-.085 1.56-.282.393-.12-.162.42-.167.606-.011.367.527.418.717.622.315.34 1.366.086 1.687.332.011 1.15.128 2.278 1.293 2.733.037-.05.379-.291.369-.314.385-.258-.47.432-.727.642.326 1.524.875 2.978 1.728 4.22 1.896 2.76 3.594 4.65 4.881 7.534zm-48.77-24.94c.263.48 1.087.567.571 1.602-.367.734-.39 1.297-.28 1.752.157.65.533 1.111.1 2.269.17.047-1.175.907-1.186.965-.26.372-.246.572-.548.97-2.323 1.715-1.645.909-1.688.71-.085-.373-1.417.107-1.274-.437-.43.268-.91.793-1.236.894-.782-.504-1.938-.339-2.194-1.237-.933.781.187.238-.37.776-.48-.31-1.473-.326-2.24-.431-.284-.04.032-.56-.181-.662-1.375-.668-2.501-1.59-3.821-2.46-1.168-.773-1.83-1.882-3.194-2.412.539-1.236-.318-1.36-.928-1.563-.192-1.772-1.937-2.624-2.39-4.542-.277-1.163-.707-2.207-1.266-3.107-.298-.485.033-1.538.23-2.488.101-.503-.167-.671-.208-1.03-.05-.445-.54-.442.493-1.776-.607-.389.048-1.644-.572-2.216 1.559-1.634 1.603-2.136 3.347-3.92 1.284-1.076 1.424-.907 2.336-1.577.233.2 1.048-.1 1.736-.334.426-.146-.081.505-.041.728.077.44.712.507.982.757.45.411 1.606.117 2.037.421.293 1.392.69 2.756 2.143 3.34.03-.062.371-.345.355-.37.387-.303-.445.508-.696.755.727 1.853 1.675 3.63 2.921 5.172 2.76 3.427 5.08 5.837 7.062 9.452zM5.248 23.935c-.174.08.963-.395.861-.41 1.896-.923 2.178-1.125 4.228-2.24 1.402-.712 1.43-.64 2.397-1.07.086.091.828-.114 1.46-.24.39-.08-.28.287-.348.407-.137.238.311.284.404.435.148.23 1.177.194 1.356.417-.464.776-.913 1.363-.175 1.926.057-.017.47-.045.472-.062.458-.023-.616.095-.943.129-.524.867-.93 1.575-1.047 2.318-.272 1.608-.527 3.045-1.942 4.033-.18.116.1.687-.755.176-.6-.367-.936-.498-1.153-.521-.307-.042-.452.123-1.213-.516.036.106-.888-1.096-.92-1.122-.279-.298-.367-.358-.662-.705-1.675-2.181-1.073-1.413-1.01-1.366.122.086-.702-.907-.42-.598l-.823-.91c.078-.026.143-.05.233-.081zm35.16-29.508c.045-.49-.01.671-.024 1.023.733.695 1.525 1.153 2.35 1.222 1.83.152 3.24-.083 4.886.663.219.096.501-.487.635.564.095.747.25 1.116.415 1.316.236.288.487.278.687 1.338.067-.104-.103 1.487-.09 1.532.029.435.09.549.113 1.034-.227 2.89-.252 1.856-.322 1.767-.138-.166-.418 1.177-.533.726-.057.503-.054 1.208-.128 1.526-.398.297-.719 1.303-1.067.937-.07 1.22.131.004.112.778-.246.179-.57.938-.85 1.468-.103.195-.154-.378-.254-.28-.642.642-1.28.924-1.968 1.377-.61.399-1.15.185-1.758.877-.177-1.214-.497-.645-.759-.317-.572-1.013-1.4-.265-2.097-1.2-.421-.568-.859-.943-1.3-1.134-.236-.103-.416-1.06-.611-1.846-.104-.413-.242-.328-.353-.541-.139-.265-.304.097-.319-1.565-.312.183-.43-1.153-.793-1.09.089-2.255-.03-2.63.083-5.12.147-1.675.237-1.662.365-2.788.131-.033.324-.835.49-1.499.103-.41.106.405.177.528.141.241.37-.182.525-.211.257-.052.561-1.103.782-1.217.464.721.96 1.34 1.589.644-.007-.064.03-.507.017-.512z" fill="#E5E1FF" mask="url(#d)" transform="rotate(-27 26.664 48.884)"/>
    </g>
    <g transform="translate(218 72)">
      <mask id="f" fill="#fff">
        <use xlink:href="#e"/>
      </mask>
      <use fill="#252E3B" xlink:href="#e"/>
      <path d="M205.168 93.957c.277-.404.555-.806.832-1.208-1.324.026-1.604-.124-2.704-.749-.967 1.478.804.506.117 2 .827-.625 1.375-.165 1.755-.043m5.664 2.466c-.033.732.903.691.546 1.685.47-.324 1.004-1.529 1.39-.689-.337.823-.6.583-.873.489-.234 1.183 1.054.75 1.52-.16.7.075-.11 1.366.394 1.6.324-.038.182-.505.578-1.104.023.477-.203 1.158.07 1.434.91-1.956.713.237 1.463.742.324-.04.179-.506.574-1.106.295.984.502.716.728 1.76.322.24.751-1.272 1.118-1.765-.222-.036-.486.604-.736 1.026-.003-.568.546-1.583.116-1.804 1.452-.997 1.631.764 2.492.322-.83 1.636-1.424-.456-2.312 2.1 1.503.397 3.425-1.544 2.771 1.384 1.817-1.503 1.145 2.16 2.716-.51.333.588.43 1.366.553 2.129.418.552.971-1.407 1.38-.712-.624 1.078 1.013 1.261 1.074 1.916.324-.046.173-.507.56-1.115-.402 3.198 2.871-.745 2.223 2.465.223.032.476-.613.718-1.037-.256 2.416 2.52-.173 1.576 2.141.708-.836 1.373-.751 2.047-.867.434-.006.05.682-.222 1.277.905-.728.725 1.369 1.531-.652-.679 3.179 2.868-.567 1.918 2.281 1.498-1.495 1.879 2.663 3.332.177.564-.054-.052.924-.043 1.355 2.422-.94 3.34 2.807 6.14.977.131 1.036.978 1.929 1.985.435.076 1.24 1.043.361.8 1.724.856-.193 1.338-.133 1.844-1.008.28.19-.48 1.326-.357 1.66 1.447-1.554 1.595 2.73 3.983.375.43-.025.075.676-.175 1.282.384.572.781-1.139 1.17-1.308-.019 1.672 2.066.127 1.484 2.443.645.29.865-.59 1.16-.864-.005 1.52.962.807 1.822.314-.255 1.833.738 1.61 2.322.96-.014.585-.19.63-.487 1.15 1.818 1.644 4.13-1.97 3.832 1.556.64-1.619.466-.889.492-.25.464-.064.044-.678.64-1.084.284.18-.433 1.342-.3 1.67.386-.033.777.148 1.14-.887.555-.083-.003.927.03 1.353.335.212.66-.105.97-.959-.012.473.565.362.032 1.351.27-.22.537-.602.801-1.025.338.356.144 1.243.537 1.549.608.19.156-1.416.63-1.093.72.157.32.29-.129 1.289.639.197.644-.398.949-1.412.484.056.334.746-.113 1.736.513.435.954-1.21 1.463-.776-.344 1.23-.738 1.027-1.081 2.255-.475-.628-1.868-.09-2.827-.203 3.484 3.112 7.069 3.88 9.68 4.967.41-.97.563 2.521 1.464-.354.392.055.418.504.08 1.345 4.727 2.125 9.762 3.997 13.124 3.651 2.502 1.142 4.887 2.563 7.405 3.78 2.51 1.214 5.167 2.234 7.994 2.46-.253 1.291-.06.934-.117 2.484 1.042-.484 1.61.158 2.096.94.482.782.87 1.662 1.457 1.603.079 1.65-.85 1.14-.927 2.503.805.341 2.319-.992 2.335 1.203-.98-.26-1.502.414-2.34.455.337 1.63 1.833.833 2.423 2.033.104 2.153-.8 2.842.535 3.306-2.937.828-6.276 1.23-9.752 1.229-3.478.004-7.087-.387-10.642-1.016-7.13-1.254-13.984-3.434-20.123-4.919-3.423-.829-6.724-1.257-8.436-3.08-7.995-1.835-16.382-4.929-24.669-8.425-8.299-3.487-16.501-7.372-24.339-10.697-9.037-3.853-17.923-7.723-26.587-12.093-8.65-4.352-17.032-9.203-24.812-14.863-4.918-3.581-10.55-6.078-15.138-10.103-9.128-8.004-18.599-15.85-26.975-24.892-4.182-4.512-8.078-9.315-11.429-14.48-3.349-5.16-6.15-10.688-8.098-16.54.846-1.781.877-3.393.909-5.016.033-1.622.01-3.22.676-4.876.968 1.195 2.394 1.823 4.01 2.152 1.623.327 3.476.335 5.25.357.89.01 1.765.02 2.597.068.841.043 1.646.12 2.375.278 1.472.307 2.607.95 3.328 2.182 1.428-.174 2.856.134 2.757 1.565 1.157-1.826-.527-2.879-.216-4.441.827.443 1.557.952 2.214 1.514.328.28.638.574.933.88.306.299.597.609.875.929.556.64 1.063 1.318 1.543 2.02.492.693.972 1.4 1.438 2.119 9.8 15 22.318 28.077 36.21 37.035-.04 1.507 1.25 1.418 1.86 2.28 1.49 2.07 4.75 2.148 6.62 3.854 2.055 1.889 4.894 3.37 7.912 5.872.231-.432-.094-.468-.24-.634.56.118 2.117-.309.855 1.003 1.073.58 2.298 1.408 3.432 2.02 1.143.602 2.192.989 2.89.7.054 1.185 2.05 2.84 3.496 1.498.149.163-.247.732-.467 1.172 1.115-.464 3.449 2.637 4.787 2.167.676.895 2.235-.106 2.903 1.097.383.083.928-1.577 1.325-1.651.579 1.366 3.447.304 3.98 2.113-.715.992-.463.285-.838.029-.7 1.32-.067 1.593-.389 2.618.477.321 1.17-2.005 1.591-1.043-1.456 1.349.806 1.481 1.768.92-.867.84.355 2.722 1.448.75M159 63.55c1.173-1.28 1.32.078 2 .077-1.492.918-.828-.151-2-.077M164.488 66c.68.026.013 1.134.512 1.308-.893 1.552-1.455.22-.512-1.308m4.314 5c-.586-.364-.97-.906-.729-2 .36-.003 1.345.18.729 2m47.64 28c-.409-.02-.29-.738-.442-1.098.366-.99.693-1.099 1-.647L216.443 99m8.557 3.641c.672-.27 1.363-.757 2-.616l-.816.963c-.92.01-.648.09-1.184-.347m-52-29.26c1.588-1.117 2.523.49 3 1.374-1.257.85-2.537-.733-3-1.374M201.188 89c-.082 1.017 1.18 1.04 1.812 1.527-.999.992-2.538.395-1.812-1.527M208 93.357c1.26-1.083 1.968.543 2 1.636-.7.092-1.624-.787-2-1.636m-18-8.411c1.45-2.426 1.524.6 3 .435-1.42 1.324-1.629.21-3-.435M194.255 86c.419.267.795.582.74 1.395-.645 1.217-1.4.521-.74-1.395M198 89.28c1.42-2.57 3.07-.679 2.998.548-1.094.739-1.912-1.178-2.998-.548m76 36.45c1.083-1.325 2.272-.53 3-.075-.965.515-1.979.378-3 .076m7 .812c.304-.707.65-.58 1-.411-.334 1.166-.978 1.003-1 .41m-99-47.576c-1.016-.124-1.722-1.652-3-.596.608.518 2.312.456 1.678 1.63 1.14-1.677.381.236 1.322-1.034" fill="#F66" mask="url(#f)"/>
      <path d="M107.973 83.236c-1.252.198-2.495.43-3.73.704-1.15.264-2.372.385-3.602.527-1.226.151-2.463.317-3.643.655-3.23.95-6.243 2.48-9.473 3.762-3.15 1.26-6.21 3.033-9.27 4.684-4.001 2.132-9.706 5.291-13.444 8.15-2.22 1.687-4.941 2.812-4.043 6.43 1.88 2.665 4.461 4.377 6.103 3.869 1.506-.452 2.93-1.844 4.376-2.579.626-.32 1.218-.653 1.741-1.006 5.13-3.405 9.996-6.496 15.12-9.929 1.19-.778 2.096-2.227 3.372-3.006 2.949-1.83 5.324-2.301 7.314-4.538 3.85-.846 6.766-4.631 10.018-6.302 1.024-.52 2.693.11 2.968-1.855-1.281.103-2.55.248-3.807.434" fill="#7E6EE6"/>
    </g>
  </g>
</svg>
