<svg width="420" height="315" xmlns="http://www.w3.org/2000/svg" xmlns:xlink="http://www.w3.org/1999/xlink">
  <defs>
    <linearGradient x1="100%" y1="0%" x2="0%" y2="100%" id="a">
      <stop stop-color="#E4E8EE" offset="0%"/>
      <stop stop-color="#B4C2D7" offset="100%"/>
    </linearGradient>
    <linearGradient x1="100%" y1="0%" x2="0%" y2="100%" id="c">
      <stop stop-color="#A59AEE" offset="0%"/>
      <stop stop-color="#7E6EE6" offset="100%"/>
    </linearGradient>
    <path id="b" d="M0 0h186v227H0z"/>
    <path id="e" d="M0 0h186v227H0z"/>
  </defs>
  <g fill="none" fill-rule="evenodd">
    <path d="M0 0h420v315H0z" fill="#FFF"/>
    <path d="M319.055 166.679c-.067-.23-.182-.398-.393-.459-2.031-.63-4.004-1.287-6.822-1.73-.635-.104-2.888.884-3.513.664-1.475-.509-.559-2.047-3.876-1.2.62-1.214-.606-1.326-2.178-1.336-1.578.006-3.499.113-4.185-.377-.43-.329 2.352-2.212-2.05-.592-1.51 1.84-2.508 3.557-3.13 5.152-.582 1.48-2.594 3.875-2.844 5.397-.337 2.077.755 3.342 1.056 5.18.309 1.807 1.754 2.91 2.806 4.226 1.356 1.73 3.362 4.244 5.953 4.81 1.507.317 1.643 2.284 8.669-4.652 6.047-6.739 11.045-12.767 11.522-13.946.432-1.096-.854-.602-1.015-1.137" fill="#E5E1FF"/>
    <path fill="url(#a)" d="M0 0h388v40H0z" transform="translate(16 16)"/>
    <g transform="translate(16 72)">
      <mask id="d" fill="#fff">
        <use xlink:href="#b"/>
      </mask>
      <use fill="url(#c)" xlink:href="#b"/>
      <path d="M43.492 58.5c-.377.203-.454.308-.879.52-2.682.922-1.76.507-1.708.41.096-.187-1.203.13-.84-.145-.469.164-1.094.456-1.403.531-.403-.172-1.4.056-1.198-.338-1.086.506.043.088-.64.42-.24-.078-1.017.073-1.56.168-.202.037.275-.266.153-.274-.77-.045-1.222-.22-1.839-.291-.536-.053-.569-.421-1.33-.237.869-.83.305-.62-.042-.5.528-.91-.362-.708-.018-1.644.19-.572.222-1.037.115-1.35-.05-.174.443-.99.798-1.709.185-.378.055-.37.111-.59.066-.277-.237-.04.687-1.435-.303.013.339-1.169.036-1.286 1.241-1.908 1.336-2.297 2.68-4.426.97-1.388 1.053-1.316 1.743-2.223.15.06.751-.51 1.27-.966.321-.282-.09.43-.079.59.024.314.48.125.66.22.295.151 1.193-.492 1.494-.393.093 1.007.195 1.912 1.237 1.936.033-.057.345-.372.335-.387.35-.347-.427.52-.662.783.273 1.205.645 2.269 1.274 3.114 1.374 1.873 2.573 3.306 2.926 5.577.04.296.712.34-.124 1.002-.593.466-.837.805-.93 1.075-.131.382-.01.666-.863 1.315.12.029-1.37.502-1.404.533zm18.424 37.366c.173.382.881.407.308 1.296-.41.63-.493 1.1-.45 1.473.062.534.342.89-.165 1.882.144.03-1.13.833-1.147.88-.267.329-.277.495-.585.847-2.225 1.584-1.544.864-1.56.7-.038-.308-1.262.175-1.079-.292-.407.25-.885.72-1.185.822-.637-.38-1.677-.182-1.805-.928-.91.706.14.192-.41.674-.392-.238-1.265-.206-1.933-.261-.248-.023.088-.475-.086-.554-1.139-.51-2.03-1.25-3.09-1.95-.94-.622-1.384-1.547-2.519-1.969.637-1.065-.101-1.15-.612-1.316.067-1.5-1.349-2.209-1.469-3.837-.07-.988-.29-1.87-.641-2.637-.189-.41.27-1.304.595-2.11.17-.424-.04-.565-.014-.868.03-.377-.4-.379.724-1.499-.466-.332.32-1.385-.121-1.872 1.64-1.362 1.766-1.782 3.597-3.264 1.306-.895 1.395-.754 2.306-1.31.165.165.924-.085 1.56-.282.393-.12-.162.42-.167.606-.011.367.527.418.717.622.315.34 1.366.086 1.687.332.011 1.15.128 2.278 1.293 2.733.037-.05.379-.291.369-.314.385-.258-.47.432-.727.642.326 1.524.875 2.978 1.728 4.22 1.896 2.76 3.594 4.65 4.881 7.534zm-48.77-24.94c.263.48 1.087.567.571 1.602-.367.734-.39 1.297-.28 1.752.157.65.533 1.111.1 2.269.17.047-1.175.907-1.186.965-.26.372-.246.572-.548.97-2.323 1.715-1.645.909-1.688.71-.085-.373-1.417.107-1.274-.437-.43.268-.91.793-1.236.894-.782-.504-1.938-.339-2.194-1.237-.933.781.187.238-.37.776-.48-.31-1.473-.326-2.24-.431-.284-.04.032-.56-.181-.662-1.375-.668-2.501-1.59-3.821-2.46-1.168-.773-1.83-1.882-3.194-2.412.539-1.236-.318-1.36-.928-1.563-.192-1.772-1.937-2.624-2.39-4.542-.277-1.163-.707-2.207-1.266-3.107-.298-.485.033-1.538.23-2.488.101-.503-.167-.671-.208-1.03-.05-.445-.54-.442.493-1.776-.607-.389.048-1.644-.572-2.216 1.559-1.634 1.603-2.136 3.347-3.92 1.284-1.076 1.424-.907 2.336-1.577.233.2 1.048-.1 1.736-.334.426-.146-.081.505-.041.728.077.44.712.507.982.757.45.411 1.606.117 2.037.421.293 1.392.69 2.756 2.143 3.34.03-.062.371-.345.355-.37.387-.303-.445.508-.696.755.727 1.853 1.675 3.63 2.921 5.172 2.76 3.427 5.08 5.837 7.062 9.452zM5.248 23.935c-.174.08.963-.395.861-.41 1.896-.923 2.178-1.125 4.228-2.24 1.402-.712 1.43-.64 2.397-1.07.086.091.828-.114 1.46-.24.39-.08-.28.287-.348.407-.137.238.311.284.404.435.148.23 1.177.194 1.356.417-.464.776-.913 1.363-.175 1.926.057-.017.47-.045.472-.062.458-.023-.616.095-.943.129-.524.867-.93 1.575-1.047 2.318-.272 1.608-.527 3.045-1.942 4.033-.18.116.1.687-.755.176-.6-.367-.936-.498-1.153-.521-.307-.042-.452.123-1.213-.516.036.106-.888-1.096-.92-1.122-.279-.298-.367-.358-.662-.705-1.675-2.181-1.073-1.413-1.01-1.366.122.086-.702-.907-.42-.598l-.823-.91c.078-.026.143-.05.233-.081zm35.16-29.508c.045-.49-.01.671-.024 1.023.733.695 1.525 1.153 2.35 1.222 1.83.152 3.24-.083 4.886.663.219.096.501-.487.635.564.095.747.25 1.116.415 1.316.236.288.487.278.687 1.338.067-.104-.103 1.487-.09 1.532.029.435.09.549.113 1.034-.227 2.89-.252 1.856-.322 1.767-.138-.166-.418 1.177-.533.726-.057.503-.054 1.208-.128 1.526-.398.297-.719 1.303-1.067.937-.07 1.22.131.004.112.778-.246.179-.57.938-.85 1.468-.103.195-.154-.378-.254-.28-.642.642-1.28.924-1.968 1.377-.61.399-1.15.185-1.758.877-.177-1.214-.497-.645-.759-.317-.572-1.013-1.4-.265-2.097-1.2-.421-.568-.859-.943-1.3-1.134-.236-.103-.416-1.06-.611-1.846-.104-.413-.242-.328-.353-.541-.139-.265-.304.097-.319-1.565-.312.183-.43-1.153-.793-1.09.089-2.255-.03-2.63.083-5.12.147-1.675.237-1.662.365-2.788.131-.033.324-.835.49-1.499.103-.41.106.405.177.528.141.241.37-.182.525-.211.257-.052.561-1.103.782-1.217.464.721.96 1.34 1.589.644-.007-.064.03-.507.017-.512z" fill="#E5E1FF" mask="url(#d)" transform="rotate(-27 26.664 48.884)"/>
    </g>
    <g transform="translate(218 72)">
      <mask id="f" fill="#fff">
        <use xlink:href="#e"/>
      </mask>
      <use fill="#252E3B" xlink:href="#e"/>
      <path d="M205.168 94.936c.277-.607.555-1.21.832-1.813-1.324.04-1.604-.186-2.704-1.123-.967 2.217.804.76.117 3 .827-.938 1.375-.247 1.755-.064m5.664 1.578c-.033.743.903.701.546 1.71.47-.328 1.004-1.552 1.39-.7-.337.836-.6.592-.873.497-.234 1.201 1.054.76 1.52-.161.7.075-.11 1.386.394 1.623.324-.039.182-.512.578-1.12.023.483-.203 1.175.07 1.455.91-1.986.713.241 1.463.753.324-.04.179-.513.574-1.122.295.999.502.726.728 1.787.322.243.751-1.292 1.118-1.792-.222-.037-.486.613-.736 1.041-.003-.577.546-1.607.116-1.831 1.452-1.013 1.631.775 2.492.327-.83 1.66-1.424-.463-2.312 2.13 1.503.404 3.425-1.566 2.771 1.407 1.817-1.526 1.145 2.193 2.716-.518.333.597.43 1.386.553 2.161.418.56.971-1.428 1.38-.723-.624 1.095 1.013 1.281 1.074 1.946.324-.047.173-.515.56-1.132-.402 3.247 2.871-.757 2.223 2.503.223.032.476-.623.718-1.054-.256 2.454 2.52-.175 1.576 2.175.708-.85 1.373-.764 2.047-.88.434-.007.05.692-.222 1.295.905-.74.725 1.39 1.531-.662-.679 3.228 2.868-.575 1.918 2.316 1.498-1.518 1.879 2.704 3.332.18.564-.054-.052.938-.043 1.375 2.422-.953 3.34 2.851 6.14.992.131 1.053.978 1.959 1.985.442.076 1.26 1.043.367.8 1.75.856-.195 1.338-.134 1.844-1.023.28.193-.48 1.346-.357 1.686 1.447-1.578 1.595 2.77 3.983.38.43-.025.075.687-.175 1.302.384.58.781-1.156 1.17-1.328-.019 1.697 2.066.13 1.484 2.48.645.295.865-.598 1.16-.877-.005 1.544.962.82 1.822.319-.255 1.861.738 1.634 2.322.975-.014.593-.19.639-.487 1.166 1.818 1.67 4.13-2 3.832 1.581.64-1.643.466-.903.492-.254.464-.065.044-.688.64-1.1.284.183-.433 1.362-.3 1.694.386-.032.777.15 1.14-.9.555-.084-.003.942.03 1.374.335.216.66-.107.97-.973-.012.48.565.367.032 1.371.27-.223.537-.61.801-1.04.338.361.144 1.261.537 1.572.608.192.156-1.437.63-1.11.72.16.32.294-.129 1.309.639.2.644-.404.949-1.434.484.057.334.758-.113 1.763.513.442.954-1.228 1.463-.788-.344 1.248-.738 1.043-1.081 2.29-.475-.638-1.868-.093-2.827-.206 3.484 3.159 7.069 3.94 9.68 5.042.41-.984.563 2.56 1.464-.359.392.056.418.512.08 1.366 4.727 2.157 9.762 4.057 13.124 3.706 2.502 1.16 4.887 2.602 7.405 3.838 2.51 1.232 5.167 2.268 7.994 2.497-.253 1.311-.06.95-.117 2.523 1.042-.492 1.61.16 2.096.953.482.795.87 1.688 1.457 1.629.079 1.674-.85 1.157-.927 2.54.805.347 2.319-1.007 2.335 1.222-.98-.265-1.502.42-2.34.462.337 1.655 1.833.846 2.423 2.064.104 2.186-.8 2.885.535 3.356-2.937.84-6.276 1.249-9.752 1.248-3.478.004-7.087-.393-10.642-1.031-7.13-1.274-13.984-3.487-20.123-4.994-3.423-.842-6.724-1.277-8.436-3.128-7.995-1.862-16.382-5.004-24.669-8.554-8.299-3.539-16.501-7.484-24.339-10.86-9.037-3.911-17.923-7.84-26.587-12.277-8.65-4.419-17.032-9.343-24.812-15.09-4.918-3.636-10.55-6.17-15.138-10.257-9.128-8.127-18.599-16.093-26.975-25.272-4.182-4.581-8.078-9.457-11.429-14.7-3.349-5.241-6.15-10.853-8.098-16.793.846-1.81.877-3.446.909-5.094.033-1.647.01-3.269.676-4.95.968 1.213 2.394 1.85 4.01 2.185 1.623.332 3.476.34 5.25.362.89.01 1.765.02 2.597.07.841.043 1.646.122 2.375.281 1.472.313 2.607.965 3.328 2.216 1.428-.177 2.856.136 2.757 1.589 1.157-1.854-.527-2.923-.216-4.51.827.451 1.557.967 2.214 1.538.328.285.638.583.933.893.306.304.597.619.875.944.556.65 1.063 1.338 1.543 2.05.492.704.972 1.422 1.438 2.152 9.8 15.228 22.318 28.505 36.21 37.6-.04 1.53 1.25 1.44 1.86 2.316 1.49 2.1 4.75 2.18 6.62 3.911 2.055 1.919 4.894 3.422 7.912 5.963.231-.44-.094-.475-.24-.644.56.12 2.117-.313.855 1.018 1.073.59 2.298 1.43 3.432 2.052 1.143.61 2.192 1.003 2.89.71.054 1.203 2.05 2.883 3.496 1.52.149.167-.247.744-.467 1.19 1.115-.471 3.449 2.678 4.787 2.2.676.91 2.235-.107 2.903 1.115.383.084.928-1.601 1.325-1.677.579 1.387 3.447.31 3.98 2.145-.715 1.007-.463.29-.838.03-.7 1.34-.067 1.617-.389 2.658.477.326 1.17-2.036 1.591-1.059-1.456 1.37.806 1.504 1.768.934-.867.853.355 2.763 1.448.762M159 62.549c1.173-1.28 1.32.078 2 .077-1.492.918-.828-.151-2-.077M164.488 66c.68.026.013 1.134.512 1.308-.893 1.552-1.455.22-.512-1.308m4.314 5c-.586-.364-.97-.906-.729-2 .36-.003 1.345.18.729 2m47.64 28c-.409-.02-.29-.738-.442-1.098.366-.99.693-1.099 1-.647L216.443 99m8.557 3.641c.672-.27 1.363-.757 2-.616l-.816.963c-.92.01-.648.09-1.184-.347m-52-30.07c1.588-1.675 2.523.736 3 2.062-1.257 1.273-2.537-1.1-3-2.061M201.188 89c-.082 1.017 1.18 1.04 1.812 1.527-.999.992-2.538.395-1.812-1.527M208 93.357c1.26-1.083 1.968.543 2 1.636-.7.092-1.624-.787-2-1.636m-18-8.411c1.45-2.426 1.524.6 3 .435-1.42 1.324-1.629.21-3-.435M194.255 86c.419.267.795.582.74 1.395-.645 1.217-1.4.521-.74-1.395M198 89.28c1.42-2.57 3.07-.679 2.998.548-1.094.739-1.912-1.178-2.998-.548m76 36.45c1.083-1.325 2.272-.53 3-.075-.965.515-1.979.378-3 .076m7 1.812c.304-.707.65-.58 1-.411-.334 1.166-.978 1.003-1 .41M182 78.45c-1.016-.187-1.722-2.479-3-.894.608.776 2.312.684 1.678 2.445 1.14-2.516.381.354 1.322-1.55" fill="#2FD8C6" mask="url(#f)"/>
      <path d="M107.973 83.236c-1.252.198-2.495.43-3.73.704-1.15.264-2.372.385-3.602.527-1.226.151-2.463.317-3.643.655-3.23.95-6.243 2.48-9.473 3.762-3.15 1.26-6.21 3.033-9.27 4.684-4.001 2.132-9.706 5.291-13.444 8.15-2.22 1.687-4.941 2.812-4.043 6.43 1.88 2.665 4.461 4.377 6.103 3.869 1.506-.452 2.93-1.844 4.376-2.579.626-.32 1.218-.653 1.741-1.006 5.13-3.405 9.996-6.496 15.12-9.929 1.19-.778 2.096-2.227 3.372-3.006 2.949-1.83 5.324-2.301 7.314-4.538 3.85-.846 6.766-4.631 10.018-6.302 1.024-.52 2.693.11 2.968-1.855-1.281.103-2.55.248-3.807.434" fill="#7E6EE6"/>
    </g>
  </g>
</svg>
