<svg width="1440" height="307" xmlns="http://www.w3.org/2000/svg">
  <g fill="none" fill-rule="evenodd">
    <path d="M1152.308 28.2c.531-.992 1.061-1.977 1.591-2.964-2.53.066-3.066-.304-5.168-1.835-1.849 3.623 1.536 1.241.223 4.903 1.58-1.533 2.63-.404 3.354-.105m12.008 4.463c-.065 1.483 1.803 1.4 1.09 3.413.938-.656 2.005-3.097 2.777-1.396-.674 1.666-1.198 1.18-1.745.99-.467 2.396 2.105 1.518 3.036-.322 1.396.151-.22 2.766.787 3.24.647-.079.363-1.023 1.153-2.237.047.965-.405 2.345.14 2.905 1.817-3.963 1.425.48 2.921 1.502.648-.082.358-1.024 1.147-2.24.588 1.993 1.003 1.45 1.453 3.565.644.486 1.5-2.576 2.232-3.575-.442-.073-.969 1.224-1.469 2.078-.005-1.15 1.09-3.206.231-3.653 2.901-2.02 3.258 1.547 4.976.652-1.655 3.313-2.843-.924-4.615 4.251 3.001.805 6.84-3.126 5.533 2.805 3.628-3.044 2.286 4.376 5.423-1.033.665 1.191.86 2.766 1.104 4.312.835 1.118 1.94-2.849 2.756-1.443-1.247 2.185 2.022 2.556 2.143 3.882.648-.093.346-1.028 1.118-2.258-.8 6.477 5.734-1.51 4.44 4.993.446.063.951-1.243 1.434-2.102-.512 4.895 5.033-.349 3.147 4.338 1.413-1.694 2.742-1.523 4.087-1.756.867-.014.1 1.381-.444 2.585 1.808-1.475 1.45 2.773 3.058-1.32-1.356 6.438 5.727-1.149 3.83 4.62 2.99-3.029 3.751 5.394 6.652.36 1.128-.11-.103 1.87-.085 2.742 4.836-1.902 6.67 5.687 12.261 1.98.261 2.1 1.953 3.906 3.963.88.152 2.514 2.083.732 1.598 3.492 1.708-.39 2.671-.269 3.681-2.042.56.386-.957 2.686-.712 3.364 2.89-3.148 3.184 5.527 7.952.76.861-.05.15 1.368-.349 2.596.767 1.157 1.56-2.307 2.337-2.65-.038 3.386 4.124.258 2.963 4.95 1.287.587 1.726-1.196 2.317-1.75-.01 3.078 1.92 1.633 3.637.634-.509 3.713 1.474 3.261 4.636 1.946-.027 1.183-.377 1.274-.97 2.326 3.63 3.331 8.245-3.99 7.65 3.154 1.278-3.279.931-1.8.982-.507.926-.129.088-1.373 1.278-2.195.567.365-.864 2.718-.597 3.38.768-.064 1.55.301 2.274-1.795 1.11-.168-.005 1.878.06 2.741.67.43 1.317-.213 1.936-1.942-.023.957 1.13.733.066 2.736.54-.446 1.071-1.219 1.6-2.076.674.721.287 2.517 1.071 3.136 1.214.384.311-2.866 1.258-2.212 1.437.318.64.585-.257 2.61 1.275.398 1.286-.807 1.894-2.86.966.113.668 1.511-.225 3.517 1.023.88 1.904-2.45 2.921-1.573-.687 2.49-1.473 2.081-2.159 4.567-.949-1.27-3.729-.183-5.645-.41 6.958 6.302 14.115 7.86 19.328 10.06.82-1.964 1.126 5.106 2.925-.717.783.111.835 1.021.158 2.725 9.44 4.304 19.493 8.094 26.208 7.394 4.995 2.313 9.757 5.191 14.786 7.657 5.011 2.457 10.317 4.523 15.961 4.98-.505 2.617-.12 1.894-.234 5.033 2.082-.98 3.215.32 4.187 1.902.962 1.586 1.736 3.368 2.908 3.25.158 3.34-1.695 2.308-1.85 5.068 1.606.691 4.63-2.01 4.662 2.436-1.958-.527-2.999.84-4.674.923.675 3.302 3.661 1.687 4.84 4.117.207 4.361-1.596 5.756 1.068 6.695-5.864 1.678-12.53 2.492-19.472 2.49-6.946.008-14.152-.784-21.25-2.057-14.238-2.54-27.924-6.957-40.18-9.963-6.837-1.679-13.428-2.547-16.847-6.239-15.964-3.716-32.71-9.983-49.258-17.065-16.57-7.06-32.949-14.93-48.599-21.666-18.046-7.803-35.79-15.642-53.09-24.493-17.27-8.814-34.008-18.639-49.544-30.103-9.82-7.254-21.065-12.31-30.227-20.463-18.227-16.212-37.137-32.104-53.863-50.416-8.35-9.14-16.13-18.867-22.82-29.328-6.688-10.454-12.282-21.649-16.17-33.5 1.688-3.609 1.75-6.874 1.814-10.162.065-3.285.021-6.52 1.35-9.875 1.933 2.42 4.781 3.692 8.008 4.36 3.24.662 6.94.677 10.482.722 1.776.02 3.525.04 5.186.138 1.68.087 3.287.244 4.743.562 2.94.623 5.204 1.925 6.644 4.421 2.852-.354 5.703.271 5.505 3.17 2.31-3.7-1.05-5.832-.43-8.997a24.797 24.797 0 0 1 4.42 3.067 27.114 27.114 0 0 1 1.863 1.782 31.257 31.257 0 0 1 1.747 1.882c1.111 1.296 2.123 2.67 3.081 4.091a122.76 122.76 0 0 1 2.871 4.292c19.568 30.38 44.564 56.868 72.304 75.013-.079 3.052 2.498 2.872 3.714 4.618 2.975 4.19 9.485 4.35 13.22 7.804 4.103 3.827 9.771 6.825 15.797 11.895.462-.876-.188-.948-.48-1.284 1.12.238 4.228-.626 1.71 2.031 2.14 1.176 4.588 2.852 6.852 4.092 2.281 1.22 4.376 2.002 5.771 1.418.106 2.4 4.094 5.75 6.98 3.032.297.332-.493 1.483-.932 2.374 2.225-.94 6.886 5.342 9.557 4.39 1.35 1.812 4.463-.215 5.797 2.222.765.168 1.853-3.194 2.646-3.345 1.156 2.768 6.883.617 7.947 4.28-1.428 2.01-.923.578-1.673.06-1.398 2.674-.134 3.226-.776 5.301.951.651 2.336-4.06 3.177-2.11-2.908 2.73 1.61 2.998 3.53 1.862-1.732 1.702.708 5.512 2.891 1.52m-103.555-67.505c1.738-2.69 1.956.165 2.963.162-2.21 1.931-1.227-.318-2.963-.162m10.77 6.051c1.198.034.023 1.492.902 1.721-1.572 2.04-2.56.288-.902-1.72m9.375 9.833c-1.315-.58-2.176-1.444-1.634-3.189.805-.005 3.016.286 1.634 3.19m95.158 55.808c-.844-.026-.598-.948-.913-1.41.754-1.272 1.428-1.412 2.062-.832l-1.149 2.242m15.327 6.82c.925-.63 1.876-1.772 2.752-1.44l-1.123 2.251c-1.265.025-.892.211-1.629-.81m-103.2-57.628c3.518-2.78 5.59 1.22 6.648 3.422-2.785 2.113-5.623-1.826-6.648-3.422m56.685 32.383c-.126 1.637 1.795 1.674 2.758 2.46-1.52 1.596-3.864.635-2.758-2.46m12.608 7.771c2.572-2.063 4.02 1.035 4.085 3.118-1.429.174-3.318-1.5-4.085-3.118m-33.216-16.564c2.205-3.936 2.317.974 4.56.707-2.158 2.147-2.476.34-4.56-.707m6.111 1.603c.824.343 1.564.75 1.455 1.794-1.268 1.565-2.755.671-1.455-1.794m7.516 7.153c2.477-4.598 5.354-1.215 5.227.98-1.907 1.322-3.333-2.108-5.227-.98m151.79 71.982c1.547-3.042 3.246-1.219 4.287-.173-1.379 1.182-2.828.867-4.287.173m13.705 4.215c.677-1.709 1.446-1.4 2.226-.994-.743 2.82-2.177 2.425-2.226.994M1106.493-3.067c-1.833-.298-3.106-3.946-5.412-1.423 1.096 1.235 4.17 1.088 3.027 3.891 2.058-4.004.688.564 2.385-2.468" fill="#5743DF"/>
    <path d="M1272.876 171.986c.323 1.346 1.215 1.608.777 2.128 2.222 2.966 1.822.01 3.099 1.109-8.334 6.473-18.535 10.103-28.907 13.124-10.713 3.127-22.24 9.458-37.297.854-.531-2.129 1.061 1.1.208-1.688-1.526-1.815-2.79-2.557-4.394-3.998-1.543-1.383-3.694-4.508-5.289-6.077-1.737-1.712-2.874-1.774-6.102-9.012-1.204-.631-3.534-5.535-4.761-6.288-1.719-4.549-2.722-6.158-4.658-10.344.054-.495.686 1.258.324-.12-1.326-2.775-2.054-3.298-3.742-7.464l1.546 1.841c-1.358-3.545-1.787-2.402-2.964-6.139.503.248.063-1.039-.716-3.757 8.503 7.74 15.457 10.644 21.687 11.523 6.234.875 11.75-.254 17.526-.645 8.394-.57 14.064-4.053 21.658-7.254 5.681-2.39 11.245-5.661 17.411-6.702 8.122-1.39 13.548-5.97 24.48-.344 1.412 2.562 2.174 3.307 3.573 5.827 6.368 13.547 5.457 16.035 5.625 19.01.103 1.77.699 4.778.39 5.641-.95 2.644-3.486.79-5.051 2.316-1.531 1.494-2.978 2.755-4.884 3.039-.648.099-.411 1.945-1.889.024-.263 3.609-3.709.824-5.447 1.598-.38.169.151 2.411-.206 2.57-.416.177-1.606-.789-1.931-.801l-.066.029zm8.181 1.328c.643 1.625.307 1.727-.289.953-.344-1.227.39.028.289-.953zm11.205-.929c-3.412.777-6.47 1.622-10.062 2.07-.33-.803-.665-1.8-.176-.748 3.435-1.012 5.886-4.256 10.238-1.322zm-12.224 2.205c-1.226-5.228 1.877 3.219.373.661.019.03-.304-.362-.373-.661zm-2.783 1.236c.143-.487 1.432.292.756-1.16-.46-.083-1.247-.225-.756 1.16z" fill="#5AE0D2"/>
    <path d="M1395.752 36.998l2.978-4.072c-2.351.606-2.662.262-3.815-1.227-3.548 4.963.78 1.24-2.294 6.136 2.239-2.272 2.62-1.064 3.13-.837m8.676 3.182c-.827 1.89.916 1.41-.777 4.1 1.194-1.016 3.429-4.318 3.242-2.31-1.478 2.242-1.7 1.728-2.094 1.592-1.672 3.13 1.112 1.518 2.915-.997 1.185-.081-1.643 3.55-.978 3.954.627-.226.863-1.366 2.21-3.06-.461 1.215-1.59 3.053-1.387 3.656 3.707-5.374 1.046.325 1.85 1.344.627-.226.86-1.368 2.207-3.061-.514 2.419.14 1.654-.56 4.252.327.493 2.7-3.558 3.884-4.966-.362-.006-1.515 1.74-2.414 2.92.598-1.46 2.66-4.277 2.123-4.683 3.666-3.113 2.129 1.336 4.147-.13-3.227 4.522-2.084-.622-6.388 6.284 2.29.439 7.803-5.282 3.515 2.506 4.858-4.553-.242 5.13 5.415-2.334-.025 1.384-.683 3.362-1.277 5.284.158 1.272 3.235-3.982 3.226-2.341-2.266 3.01.465 2.887-.125 4.553.629-.236.852-1.372 2.19-3.08-4.13 8.403 5.914-2.943 1.324 5.586.366 0 1.507-1.754 2.39-2.937-3.04 6.333 4.666-1.316.509 4.995 2.156-2.411 3.25-2.423 4.573-2.956.78-.17-.642 1.747-1.763 3.378 2.393-2.2-.18 3.295 3.423-2.215-4.625 8.47 5.694-2.428.943 5.275 4.274-4.39.444 6.307 5.699-.622 1.055-.32-1.092 2.419-1.541 3.534 5.303-3.228 2.822 6.28 9.739.66-.903 2.667-.39 4.74 3.008.549-1.221 3.214 1.438.634-.48 4.258 1.705-.74 2.48-.718 4.327-3.147.28.42-2.294 3.6-2.447 4.44 4.236-4.461-.213 6.675 6.527-.096.776-.176-.617 1.752-1.723 3.403.036 1.397 2.619-3.185 3.482-3.728-1.884 4.379 3.45-.2-.138 6.029.79.608 2.15-1.756 2.968-2.546-1.704 3.99.758 1.89 2.799.388-2.48 4.859-.522 4.046 2.936 1.984-.677 1.537-1.03 1.695-2.125 3.126 1.29 3.893 9.325-6.081 4.83 3.265 2.928-4.394 1.805-2.437 1.126-.76.868-.262.842-1.793 2.324-2.984.283.417-2.26 3.62-2.4 4.453.694-.161 1.16.233 2.955-2.564 1.047-.333-1.055 2.44-1.484 3.559.33.498 1.242-.4 2.742-2.71-.558 1.25.55.855-1.482 3.56.71-.63 1.598-1.684 2.53-2.85.17.879-1.17 3.254-.851 3.987.819.39 1.88-3.76 2.32-2.995 1.048.284.215.704-1.69 3.42.862.405 1.552-1.165 3.228-3.893.764.056-.286 1.914-2.178 4.602.365 1.068 3.003-3.352 3.366-2.286-1.995 3.305-2.43 2.835-4.422 6.134-.075-1.592-3.054.07-4.56-.041 2.354 7.586 7.48 9.048 10.586 11.618 1.823-2.615-2.01 6.608 2.87-1.11.595.112.11 1.302-1.446 3.567 5.433 5.136 11.4 10.229 17.28 9.85 2.599 3.447 4.474 7.885 6.58 12.075 2.112 4.184 4.43 8.158 7.85 10.726-2.374 3.189-1.55 2.388-4.066 6.372 4.229-1.107-1.266 8.489.267 9.144-2.622 4.276-2.831 2.236-5.14 5.685.33 1.476 4.222-.736.586 4.854-.637-1.41-2.312-.09-3.29-.602-2.284 4.422.608 3.499-.762 6.99-3.48 5.544-5.52 6.659-4.958 8.785-8.464-.164-16.576-3.821-24.548-8.253-7.957-4.458-15.851-9.568-23.947-12.696-4.517-1.727-9.502-2.293-10.215-6.782-22.263-6.836-42.56-24.521-63.346-36.045-24.03-13.317-47.674-26.338-66.052-45.312-5.811-6.013-14.208-8.492-19.548-14.943-5.283-6.486-11.142-12.27-17.087-17.963-5.926-5.715-12.06-11.188-17.824-17.096-5.785-5.883-11.326-12.047-16.105-19.063a98.93 98.93 0 0 1-6.622-11.115A91.01 91.01 0 0 1 1232-19.053c4.386-9.555 1.73-13.478 4.987-22.074 7.966 3.756 32.913-21.44 37.917-14.31 3.175-2.222 6.284-3.38 5.732-.167 2.992-5.42-.515-5.552.519-9.375 6.918-.348 10.353 3.588 13.517 7.845 16.567 22.195 32.898 43.023 52.685 56.254-1.377 3.77 1.24 2.718 1.693 4.466 1.1 4.206 7.398 2.413 9.436 5.639 2.248 3.538 6.316 5.682 9.645 10.422.855-1.211.27-1.13.15-1.47.964-.008 4.326-1.88.662 2.082 2.916 1.856 6.026 5.919 9.233 3.774-1.057 2.957 1.006 6.22 5.044 2.152.114.347-1.196 1.973-2.048 3.193 2.566-1.717 3.73 5.146 6.68 3.36.343 1.974 4.226-1.233 4.215 1.556.619.049 3.332-4.423 4.139-4.781-.341 3.24 6.02-.673 5.114 3.735-2.34 2.833-1.143.922-1.564.422-2.654 3.67-1.778 4.102-3.433 6.855.538.623 4.228-5.612 3.997-3.325-4.062 4.045-.07 3.453 2.259 1.639-2.457 2.503-2.208 6.832 1.848 1.34m-68.015-55.917c2.783-3.9 1.923-.523 2.947-.9-2.981 3.152-1.125.068-2.947.9m8.54 3.454c1.196-.378-.57 1.805.224 1.777-2.4 3.026-2.692 1.246-.223-1.777m5.312 8.869c-1.05-.294-1.534-1.076-.28-3.377.82-.29 2.876-.626.28 3.377m62.62 46.614c-.744.126-.04-1.093-.084-1.618 1.346-1.76 2.029-2.067 2.294-1.448l-2.21 3.066m10.217 5.757c1.159-.971 2.612-2.6 3.22-2.336l-2.19 3.072c-1.145.263-.908.432-1.03-.736M1355.299.435c4.652-4.482 4.973-.21 4.989 2.23-3.627 3.393-4.69-.563-4.99-2.23m38.595 25.81c-.94 2.083.803 1.73 1.293 2.515-2.216 2.34-3.875 1.617-1.293-2.514m7.63 7.15c3.422-3.142 3.158.475 2.132 3.104-1.385.5-2.254-1.224-2.131-3.104m-22.516-13.452c3.996-5.457 1.706.662 3.95-.216-3.083 3.206-2.503 1.028-3.95.216m4.97.537c.6.24 1.09.579.472 1.915-1.962 2.259-2.907 1.48-.471-1.915m3.457 7.26c4.606-6.337 5.578-2.713 4.354.077-2.434 2.084-2.031-1.916-4.354-.077m96.277 67.734c3.045-4.098 3.45-1.858 3.727-.558-1.84 1.642-2.878 1.332-3.727.558m9.15 4.562c1.558-2.28 2.029-1.903 2.452-1.404-2.26 3.733-3.237 3.273-2.452 1.404m-124.7-91.403c-1.63.137-1.18-4.04-4.561-.27.485 1.23 3.519.197 1.12 3.987 3.837-5.532.404.508 3.442-3.717" fill="#252E3B"/>
    <path d="M1406.688 258.64c-.329.46-.359.63-.74 1.13-2.643 2.688-1.792 1.651-1.787 1.506.004-.272-1.353.88-1.084.343-.46.473-1.031 1.188-1.354 1.462-.58.045-1.63.911-1.622.335-.993 1.24.103.076-.514.872-.33.055-1.165.7-1.755 1.139-.218.164.171-.475.022-.41-.942.415-1.582.485-2.356.777-.668.264-.923-.141-1.718.533.543-1.484-.004-.9-.345-.551.093-1.37-.845-.598-.988-1.885-.109-.775-.345-1.33-.655-1.627-.162-.17-.056-1.409-.056-2.453-.003-.548-.153-.46-.216-.748-.084-.359-.304.098-.026-2.07-.353.198-.285-1.553-.713-1.505.353-2.952.237-3.456.584-6.726.337-2.187.476-2.155.764-3.618.213-.02.593-1.043.941-1.883.216-.519.146.552.254.729.212.346.642-.147.912-.147.44-.003 1.128-1.289 1.545-1.357.702 1.105 1.354 2.087 2.606 1.484.007-.086.191-.638.17-.65.214-.612-.2.859-.325 1.304 1.032 1.225 2.1 2.226 3.342 2.82 2.733 1.328 5 2.254 6.754 4.66.22.316 1.045-.04.441 1.23-.432.896-.522 1.434-.473 1.802.068.52.378.775-.254 2.04.16-.04-1.333 1.407-1.354 1.463zm44.91 32.004c.442.347 1.321-.064 1.16 1.349-.117 1.003.065 1.612.343 2.028.399.596.956.846.938 2.34.193-.055-.874 1.69-.865 1.758-.127.555-.04.76-.2 1.369-1.756 3.263-1.36 1.986-1.48 1.802-.232-.344-1.432.99-1.492.322-.344.55-.644 1.405-.947 1.713-1.006-.056-2.154.825-2.762.018-.683 1.405.286.142-.092 1.056-.622-.039-1.668.541-2.515.89-.316.128-.18-.619-.441-.604-1.697.102-3.232-.224-4.947-.396-1.522-.156-2.624-.98-4.263-.775.131-1.66-.821-1.304-1.544-1.183-.826-1.825-2.981-1.787-4.113-3.646-.685-1.13-1.487-2.043-2.378-2.735-.479-.37-.46-1.716-.551-2.875-.05-.61-.391-.648-.544-1.023-.192-.467-.716-.202-.024-2.23-.77-.106-.448-1.845-1.28-2.15 1.174-2.637 1.073-3.214 2.409-6.112 1.051-1.875 1.245-1.763 2.018-2.99.302.095 1.076-.673 1.731-1.302.408-.39.058.599.165.823.208.442.895.168 1.25.293.59.207 1.717-.747 2.258-.653.71 1.36 1.535 2.626 3.23 2.443.015-.084.287-.582.26-.602.314-.546-.311.805-.498 1.214 1.32 1.608 2.87 2.993 4.662 3.94 3.983 2.1 7.197 3.29 10.513 5.918zm-72.737.514c.601.399 1.642-.004 1.638 1.52-.005 1.081.304 1.752.706 2.216.575.665 1.3.973 1.47 2.589.233-.05-.871 1.777-.85 1.852-.09.593.045.818-.081 1.467-1.77 3.425-1.435 2.068-1.606 1.863-.323-.384-1.637.992-1.79.269-.355.575-.62 1.482-.952 1.8-1.239-.11-2.529.791-3.37-.101-.656 1.482.365.163.017 1.132-.761-.068-1.963.52-2.946.867-.366.127-.295-.673-.612-.662-2.048.06-3.95-.326-6.053-.535-1.862-.187-3.315-1.077-5.27-.861-.088-1.772-1.19-1.394-2.044-1.257-1.284-1.95-3.887-1.878-5.571-3.84-1.026-1.188-2.162-2.144-3.37-2.853-.646-.383-.875-1.816-1.204-3.046-.177-.649-.599-.681-.861-1.074-.325-.49-.912-.186-.466-2.375-.96-.084-.92-1.95-2.004-2.238.9-2.862.653-3.475 1.687-6.625.902-2.042 1.17-1.93 1.867-3.27.399.09 1.2-.758 1.886-1.452.425-.431.203.64.383.874.356.468 1.158.157 1.63.283.786.205 2-.845 2.697-.754 1.181 1.446 2.469 2.795 4.56 2.587 0-.09.241-.63.208-.649.284-.59-.233.865-.387 1.307 1.974 1.72 4.171 3.214 6.584 4.252 5.353 2.313 9.573 3.707 14.104 6.714zm-37.368-49.588c-.163.2.937-1.054.805-1.008 1.76-2.243 1.982-2.652 3.815-5.213 1.283-1.692 1.36-1.625 2.28-2.723.16.052.94-.644 1.632-1.182.427-.333-.17.507-.181.688-.026.36.545.136.746.253.316.175 1.545-.504 1.894-.356-.105 1.186-.304 2.144.925 2.338.06-.054.544-.342.537-.363.543-.31-.694.491-1.07.733-.125 1.328-.2 2.4.096 3.333.618 2.031 1.156 3.854.021 5.874-.152.246.528.734-.814.671-.945-.054-1.43.003-1.71.11-.396.142-.475.423-1.777.154.107.1-1.725-.72-1.78-.73-.515-.173-.657-.189-1.22-.408-3.323-1.489-2.138-.971-2.033-.956.199.024-1.388-.616-.864-.432l-1.537-.545c.08-.078.144-.146.235-.238zm24.313-55.612c-.228-.587.378.77.564 1.18 1.307.33 2.55.354 3.608-.086 2.347-.978 3.948-2.132 6.413-2.318.325-.027.335-.869 1.11.243.55.792.956 1.115 1.275 1.239.46.179.763.01 1.625 1.091.022-.16.734 1.758.777 1.8.287.477.43.569.74 1.107 1.396 3.433.766 2.271.627 2.214-.266-.102.167 1.603-.236 1.161.221.609.633 1.41.726 1.819-.318.587-.13 1.934-.772 1.737.623 1.433.164-.078.589.815-.2.359-.158 1.426-.196 2.206-.014.287-.41-.333-.477-.158-.42 1.133-1.043 1.856-1.629 2.804-.521.837-1.31.933-1.66 2.103-.923-1.271-.987-.422-1.12.117-1.293-.794-1.881.579-3.283-.048-.85-.383-1.606-.534-2.262-.474-.35.03-1.127-.946-1.825-1.718-.367-.406-.487-.221-.749-.394-.325-.215-.318.301-1.3-1.582-.28.404-1.2-1.042-1.612-.741-1.199-2.624-1.563-2.975-2.868-5.883-.79-1.999-.671-2.04-1.166-3.403.142-.12-.086-1.154-.266-2.014-.11-.533.366.394.525.489.315.186.351-.44.525-.57.288-.22.053-1.608.26-1.877.99.53 1.96.922 2.333-.266-.046-.068-.258-.595-.276-.593z" fill="#7E6EE6"/>
  </g>
</svg>
